<svg width="434" height="371" viewBox="0 0 434 371" fill="none" xmlns="http://www.w3.org/2000/svg">
<path d="M312.759 370.999C311.718 370.999 310.676 370.448 310.124 369.467L251.531 267.236C250.673 265.765 251.225 263.865 252.635 263.069C254.106 262.211 255.944 262.701 256.802 264.172L315.334 366.341C316.192 367.812 315.64 369.712 314.23 370.509C313.801 370.877 313.25 370.999 312.759 370.999Z" fill="white"/>
<path d="M121.046 370.999C120.556 370.999 120.005 370.876 119.514 370.57C118.043 369.712 117.553 367.873 118.411 366.402L176.942 264.233C177.494 263.252 178.475 262.701 179.578 262.701H192.632C194.348 262.701 195.697 264.049 195.697 265.765C195.697 267.481 194.348 268.83 192.632 268.83H181.355L123.682 369.467C123.13 370.447 122.088 370.999 121.046 370.999Z" fill="white"/>
<path d="M3.06447 278.391C2.51286 278.391 1.96126 278.269 1.47094 277.962C0.551604 277.411 0 276.43 0 275.327V95.6877C0 94.6457 0.551604 93.6038 1.47094 93.0522C2.39028 92.5006 3.49349 92.4393 4.47412 92.9296L54.9152 119.223C56.3862 120.02 56.9991 121.858 56.2023 123.329C55.4056 124.861 53.5669 125.413 52.0959 124.616L6.12893 100.713V270.301L125.092 208.337V162.677L109.279 154.403C107.808 153.606 107.195 151.767 107.992 150.296C108.789 148.764 110.627 148.213 112.098 149.009L129.566 158.141C130.608 158.693 131.22 159.735 131.22 160.838V210.237C131.22 211.402 130.608 212.444 129.566 212.934L4.47412 278.085C4.0451 278.269 3.55478 278.391 3.06447 278.391Z" fill="white"/>
<path d="M389.923 337.658H43.8832C42.1671 337.658 40.8187 336.309 40.8187 334.593V36.3594C40.8187 34.6433 42.1671 33.2949 43.8832 33.2949H389.923C391.639 33.2949 392.987 34.6433 392.987 36.3594V334.593C392.987 336.248 391.578 337.658 389.923 337.658ZM46.9476 331.529H386.858V39.4239H46.9476V331.529Z" fill="white"/>
<path d="M3.06447 370.998C2.63544 370.998 2.14513 370.876 1.77739 370.692C0.674183 370.202 0 369.098 0 367.934V3.07858C0 1.91408 0.674183 0.810871 1.77739 0.320556C2.81931 -0.169759 4.10639 -0.04718 5.02573 0.688292L130.117 102.858C130.853 103.471 131.22 104.329 131.22 105.248V265.703C131.22 266.623 130.791 267.481 130.117 268.094L5.02573 370.324C4.47412 370.753 3.73865 370.998 3.06447 370.998ZM6.12893 9.51396V361.437L125.092 264.232V106.719L6.12893 9.51396Z" fill="white"/>
<path d="M430.68 370.999C430.006 370.999 429.332 370.754 428.719 370.325L304.485 268.83H254.167C252.451 268.83 251.102 267.481 251.102 265.765C251.102 264.049 252.451 262.701 254.167 262.701H305.589C306.324 262.701 306.998 262.946 307.55 263.375L432.641 365.544C433.928 366.586 434.174 368.547 433.07 369.834C432.458 370.57 431.599 370.999 430.68 370.999Z" fill="white"/>
<path d="M3.06447 371C2.20642 371 1.28708 370.632 0.67419 369.897C-0.367728 368.61 -0.18386 366.649 1.10322 365.607L126.195 263.437C126.746 263.008 127.421 262.763 128.156 262.763H192.571C194.287 262.763 195.636 264.112 195.636 265.828C195.636 267.544 194.287 268.892 192.571 268.892H129.259L5.02573 370.326C4.41284 370.755 3.73866 371 3.06447 371Z" fill="white"/>
<path d="M430.68 278.39C430.19 278.39 429.7 278.268 429.27 278.022L304.179 212.933C303.198 212.382 302.524 211.34 302.524 210.236V160.837C302.524 159.673 303.137 158.631 304.179 158.14L429.27 92.9899C430.251 92.4996 431.354 92.4996 432.274 93.1125C433.193 93.6641 433.745 94.6447 433.745 95.7479V275.448C433.745 276.49 433.193 277.532 432.274 278.084C431.783 278.268 431.232 278.39 430.68 278.39ZM308.653 208.336L427.616 270.3V100.712L308.653 162.676V208.336Z" fill="white"/>
<path d="M254.228 108.313H179.578C178.475 108.313 177.494 107.7 176.942 106.781L118.35 4.61135C117.798 3.63072 117.798 2.46622 118.35 1.54688C118.901 0.566252 119.943 0.0146484 121.046 0.0146484H312.759C313.863 0.0146484 314.843 0.566252 315.395 1.54688C315.947 2.46622 315.947 3.63072 315.395 4.61135L256.864 106.781C256.312 107.761 255.331 108.313 254.228 108.313ZM181.355 102.184H252.451L307.489 6.14358H126.317L181.355 102.184Z" fill="white"/>
<path d="M348.614 304.316H85.1922C83.4761 304.316 82.1277 302.968 82.1277 301.252V158.876C82.1277 157.16 83.4761 155.812 85.1922 155.812C86.9083 155.812 88.2566 157.16 88.2566 158.876V298.187H345.549V72.9488H241.174C239.457 72.9488 238.109 71.6004 238.109 69.8843C238.109 68.1682 239.457 66.8198 241.174 66.8198H348.552C350.269 66.8198 351.617 68.1682 351.617 69.8843V301.252C351.678 302.906 350.269 304.316 348.614 304.316Z" fill="white"/>
<path d="M85.1922 96.4839C83.4761 96.4839 82.1277 95.1355 82.1277 93.4194V69.8843C82.1277 68.1682 83.4761 66.8198 85.1922 66.8198H183.991C185.707 66.8198 187.055 68.1682 187.055 69.8843C187.055 71.6004 185.707 72.9488 183.991 72.9488H88.2566V93.4194C88.2566 95.1355 86.847 96.4839 85.1922 96.4839Z" fill="white"/>
<path d="M100.453 146.189H69.9311C66.5602 146.189 63.8022 143.431 63.8022 140.06V109.538C63.8022 106.167 66.5602 103.409 69.9311 103.409H100.453C103.824 103.409 106.582 106.167 106.582 109.538V140.06C106.582 143.431 103.824 146.189 100.453 146.189ZM76.0601 133.931H94.3243V115.667H76.0601V133.931Z" fill="white"/>
<path d="M268.754 180.204H230.877C228.67 180.204 226.587 178.979 225.545 177.079C224.442 175.117 224.503 172.727 225.729 170.888L244.667 140.489C246.935 136.873 252.818 136.873 255.086 140.489L274.025 170.888C275.189 172.788 275.25 175.179 274.208 177.079C273.044 178.979 271.021 180.204 268.754 180.204ZM241.97 167.947H257.722L249.815 155.26L241.97 167.947Z" fill="white"/>
<path d="M223.522 289.912C211.755 289.912 202.132 280.29 202.132 268.522C202.132 256.755 211.755 247.132 223.522 247.132C235.29 247.132 244.912 256.755 244.912 268.522C244.912 280.29 235.29 289.912 223.522 289.912ZM223.522 259.39C218.496 259.39 214.39 263.497 214.39 268.522C214.39 273.548 218.496 277.654 223.522 277.654C228.548 277.654 232.654 273.548 232.654 268.522C232.654 263.497 228.548 259.39 223.522 259.39Z" fill="white"/>
<path d="M198.271 83.9811C196.677 83.9811 195.145 83.3682 193.919 82.2037C191.529 79.8135 191.529 75.9522 193.919 73.5619L223.4 44.0818C225.79 41.6915 229.651 41.6915 232.041 44.0818C234.432 46.4721 234.432 50.3333 232.041 52.7236L202.561 82.2037C201.397 83.3682 199.865 83.9811 198.271 83.9811Z" fill="white"/>
<path d="M227.751 83.9811C226.158 83.9811 224.625 83.3682 223.4 82.2037L193.919 52.7236C191.529 50.3333 191.529 46.4721 193.919 44.0818C196.31 41.6915 200.171 41.6915 202.561 44.0818L232.041 73.5619C234.432 75.9522 234.432 79.8135 232.041 82.2037C230.877 83.3682 229.345 83.9811 227.751 83.9811Z" fill="white"/>
<path d="M305.589 108.313H128.156C127.421 108.313 126.746 108.068 126.195 107.639L1.10322 5.4694C0.122589 4.61135 -0.245147 3.26298 0.183878 2.0372C0.612903 0.81141 1.7774 0.0146484 3.06448 0.0146484H430.68C431.967 0.0146484 433.132 0.81141 433.561 2.0372C433.99 3.26298 433.622 4.61135 432.641 5.4694L307.55 107.639C306.998 108.068 306.324 108.313 305.589 108.313ZM129.259 102.184H304.547L422.1 6.14358H11.645L129.259 102.184Z" fill="white"/>
<path d="M430.68 370.999C430.006 370.999 429.27 370.753 428.719 370.324L303.689 268.094C302.953 267.481 302.585 266.623 302.585 265.704V105.248C302.585 104.329 303.014 103.471 303.689 102.858L428.78 0.688463C429.7 -0.0470089 430.987 -0.230877 432.028 0.320727C433.07 0.811042 433.806 1.91425 433.806 3.07875V367.934C433.806 369.099 433.132 370.202 432.028 370.692C431.599 370.876 431.17 370.999 430.68 370.999ZM308.653 264.294L427.616 361.499V9.51413L308.653 106.719V264.294Z" fill="white"/>
</svg>
