<svg width="128" height="129" viewBox="0 0 128 129" fill="none" xmlns="http://www.w3.org/2000/svg">
<path d="M94.778 114.818C109.594 106.599 120.161 92.5101 122.705 76.0449" stroke="white" stroke-width="5" stroke-miterlimit="10"/>
<path d="M33.25 114.818C18.4341 106.599 7.86727 92.5101 5.32341 76.0449" stroke="white" stroke-width="5" stroke-miterlimit="10"/>
<path d="M90.2493 9.51341C82.3661 5.34818 73.4486 3 64 3C54.5514 3 45.6339 5.34818 37.7507 9.51341" stroke="white" stroke-width="5" stroke-miterlimit="10"/>
<path d="M105.932 42.1362C97.1261 42.1362 86.3636 48.0346 86.3636 52.088V61.7044C93.0448 66.2051 98.9152 67.2953 105.932 67.2953C112.948 67.2953 118.819 66.2051 125.5 61.7044V52.088C125.5 48.0346 114.738 42.1362 105.932 42.1362Z" stroke="white" stroke-width="5" stroke-miterlimit="10"/>
<path d="M105.932 14.1816C100.145 14.1816 94.75 18.6823 94.75 24.2453V32.0725C94.75 37.6355 100.145 42.1362 105.932 42.1362C111.718 42.1362 117.114 37.6355 117.114 32.0725V24.2453C117.114 18.6823 111.718 14.1816 105.932 14.1816Z" stroke="white" stroke-width="5" stroke-miterlimit="10"/>
<path d="M64 100.841C55.1943 100.841 44.4318 106.739 44.4318 110.793V120.409C50.0227 124.91 56.9834 126 64 126C71.0166 126 77.9773 124.91 83.5682 120.409V110.793C83.5682 106.739 72.8057 100.841 64 100.841Z" stroke="white" stroke-width="5" stroke-miterlimit="10"/>
<path d="M64 72.8862C58.2134 72.8862 52.8182 77.3869 52.8182 82.9499V90.7771C52.8182 96.3401 58.2134 100.841 64 100.841C69.7866 100.841 75.1818 96.3401 75.1818 90.7771V82.9499C75.1818 77.3869 69.7866 72.8862 64 72.8862Z" stroke="white" stroke-width="5" stroke-miterlimit="10"/>
<path d="M22.0682 42.1362C13.2625 42.1362 2.5 48.0346 2.5 52.088V61.7044C9.18114 66.2051 15.0516 67.2953 22.0682 67.2953C29.0848 67.2953 34.9552 66.2051 41.6364 61.7044V52.088C41.6364 48.0346 30.8739 42.1362 22.0682 42.1362Z" stroke="white" stroke-width="5" stroke-miterlimit="10"/>
<path d="M22.0682 14.1816C16.2816 14.1816 10.8864 18.6823 10.8864 24.2453V32.0725C10.8864 37.6355 16.2816 42.1362 22.0682 42.1362C27.8548 42.1362 33.25 37.6355 33.25 32.0725V24.2453C33.25 18.6823 27.8548 14.1816 22.0682 14.1816Z" stroke="white" stroke-width="5" stroke-miterlimit="10"/>
</svg>
