<svg width="36" height="36" viewBox="0 0 36 36" fill="none" xmlns="http://www.w3.org/2000/svg">
<g clip-path="url(#clip0_143_42)">
<path d="M29.7983 6.09489C27.5548 5.06547 25.1489 4.30703 22.6335 3.87264C22.5876 3.86426 22.5419 3.88521 22.5183 3.92711C22.2089 4.47743 21.8661 5.19536 21.6261 5.75965C18.9206 5.3546 16.2289 5.3546 13.5789 5.75965C13.3388 5.18282 12.9836 4.47743 12.6728 3.92711C12.6492 3.88661 12.6035 3.86566 12.5577 3.87264C10.0436 4.30564 7.63776 5.06408 5.39284 6.09489C5.3734 6.10327 5.35675 6.11725 5.34569 6.1354C0.782308 12.953 -0.467794 19.603 0.145464 26.1706C0.148239 26.2027 0.166276 26.2335 0.19125 26.253C3.20204 28.464 6.1185 29.8064 8.98081 30.6961C9.02662 30.7101 9.07516 30.6933 9.10431 30.6556C9.78139 29.7309 10.3849 28.756 10.9024 27.7307C10.933 27.6707 10.9038 27.5995 10.8414 27.5757C9.88406 27.2126 8.97248 26.7698 8.0956 26.267C8.02625 26.2265 8.02069 26.1273 8.0845 26.0798C8.26903 25.9415 8.4536 25.7976 8.6298 25.6524C8.66168 25.6258 8.7061 25.6202 8.74358 25.637C14.5043 28.2671 20.7409 28.2671 26.4337 25.637C26.4711 25.6188 26.5156 25.6244 26.5488 25.651C26.7251 25.7962 26.9096 25.9415 27.0955 26.0798C27.1593 26.1273 27.1552 26.2265 27.0858 26.267C26.2089 26.7796 25.2973 27.2126 24.3386 27.5743C24.2762 27.5981 24.2484 27.6707 24.279 27.7307C24.8076 28.7546 25.4111 29.7295 26.0757 30.6542C26.1035 30.6933 26.1534 30.7101 26.1992 30.6961C29.0754 29.8064 31.9918 28.464 35.0026 26.253C35.029 26.2335 35.0457 26.2041 35.0484 26.172C35.7824 18.5791 33.8191 11.9837 29.844 6.13678C29.8343 6.11725 29.8177 6.10327 29.7983 6.09489ZM11.7627 22.1716C10.0283 22.1716 8.59926 20.5793 8.59926 18.6239C8.59926 16.6684 10.0006 15.0761 11.7627 15.0761C13.5386 15.0761 14.9539 16.6824 14.9261 18.6239C14.9261 20.5793 13.5247 22.1716 11.7627 22.1716ZM23.459 22.1716C21.7246 22.1716 20.2956 20.5793 20.2956 18.6239C20.2956 16.6684 21.6969 15.0761 23.459 15.0761C25.2349 15.0761 26.6501 16.6824 26.6224 18.6239C26.6224 20.5793 25.2349 22.1716 23.459 22.1716Z" fill="#5865F2"/>
</g>
<defs>
<clipPath id="clip0_143_42">
<rect width="35.2" height="35.2" fill="white"/>
</clipPath>
</defs>
</svg>
