<svg width="378" height="379" viewBox="0 0 378 379" fill="none" xmlns="http://www.w3.org/2000/svg">
<path d="M14.5917 12.5917H12.5917V14.5917V43.7685C12.5917 57.4469 23.9168 68.5118 37.7613 68.5118C51.4045 68.5118 62.5047 57.419 62.5047 43.7685V14.5917V12.5917H60.5047H14.5917ZM37.7613 79.097C18.0221 79.097 2 63.2279 2 43.7685V7.29256C2 4.37048 4.37048 2 7.29256 2H67.7972C70.7193 2 73.0898 4.37048 73.0898 7.29256V43.7685C73.0898 63.2494 57.2362 79.097 37.7613 79.097Z" stroke="white" stroke-width="4"/>
<path d="M84.8051 76.6085L84.8039 76.608C82.0691 75.5807 80.682 72.5257 81.716 69.7811L81.7166 69.7794C82.7451 67.0416 85.7886 65.6524 88.5427 66.6911C105.33 73.0237 123.003 61.0382 123.003 43.7619V14.5917V12.5917H121.003H67.8038C64.8817 12.5917 62.5112 10.2212 62.5112 7.29912L62.5112 7.29262C62.5017 4.37148 64.8727 2 67.7972 2H128.289C131.211 2 133.581 4.37049 133.581 7.29256V43.7685V43.7691C133.588 63.5973 118.088 79.097 98.2594 79.097C93.7264 79.097 89.2036 78.2642 84.8051 76.6085Z" stroke="white" stroke-width="4"/>
<path d="M145.314 76.6035L145.309 76.6015C142.571 75.5732 141.19 72.5186 142.225 69.7927L142.228 69.7848C143.263 67.0259 146.337 65.6439 149.016 66.6948L149.03 66.7002L149.044 66.7053C165.773 72.9875 183.487 61.0498 183.501 43.7701V43.7685V14.5917V12.5917H181.501H128.295C125.373 12.5917 123.003 10.2212 123.003 7.29912L123.003 7.29587C122.998 4.36922 125.367 2 128.289 2H188.793C191.716 2 194.086 4.37048 194.086 7.29256V43.7685C194.086 63.597 178.58 79.097 158.758 79.097C154.224 79.097 149.696 78.264 145.314 76.6035Z" stroke="white" stroke-width="4"/>
<path d="M205.804 76.6032L205.8 76.6015C203.063 75.5732 201.682 72.5187 202.717 69.7927L202.72 69.7849C203.744 67.0533 206.849 65.6834 209.527 66.7023L209.534 66.7048C226.168 72.9667 244.432 60.7784 244.432 43.7685V14.5917V12.5917H242.432H188.787C185.865 12.5917 183.494 10.2212 183.494 7.29915C183.494 4.37707 185.865 2.00659 188.787 2.00659H249.718C252.643 2.00659 255.004 4.37356 255.004 7.29915V43.7751V43.7757C255.01 63.2284 239.001 79.097 219.256 79.097C214.716 79.097 210.194 78.2642 205.804 76.6032Z" stroke="white" stroke-width="4"/>
<path d="M266.309 76.6032L266.305 76.6015C263.569 75.5739 262.186 72.521 263.214 69.7944C264.273 67.0434 267.352 65.6857 270.041 66.7035L270.042 66.7037C286.771 73.0303 304.943 60.7966 304.943 43.7685V14.5917V12.5917H302.943H249.731C246.806 12.5917 244.445 10.2248 244.445 7.29915C244.445 4.37355 246.806 2.00659 249.731 2.00659H310.236C313.161 2.00659 315.522 4.37356 315.522 7.29915V43.7738C315.509 63.2286 299.498 79.097 279.76 79.097C275.22 79.097 270.699 78.2642 266.309 76.6032Z" stroke="white" stroke-width="4"/>
<path d="M326.807 76.6032L326.803 76.6015C324.066 75.5735 322.684 72.519 323.713 69.7917C324.757 67.0487 327.857 65.6846 330.537 66.7027L330.542 66.7044C333.505 67.8216 337.186 68.5119 340.252 68.5119C354.088 68.5119 365.428 57.4549 365.428 43.7685V14.5917V12.5917H363.428H310.229C307.304 12.5917 304.943 10.2248 304.943 7.29915C304.943 4.37355 307.304 2.00659 310.229 2.00659H370.714C373.639 2.00659 376 4.37355 376 7.29915V43.7751C376 63.2284 359.991 79.097 340.245 79.097C335.909 79.097 331.007 78.1922 326.807 76.6032Z" stroke="white" stroke-width="4"/>
<path d="M363.421 365.428H365.421V363.428V350.555V348.555H363.421H14.5917H12.5917V350.555V363.428V365.428H14.5917H30.895C33.8171 365.428 36.1876 367.799 36.1876 370.721C36.1876 373.643 33.8171 376.013 30.895 376.013H7.29256C4.37164 376.013 2 373.644 2 370.714V343.249C2 340.327 4.37048 337.957 7.29256 337.957H370.707C373.633 337.957 375.993 340.324 375.993 343.249V370.714V370.718C375.998 373.646 373.64 376.013 370.707 376.013H59.2127C56.2906 376.013 53.9202 373.643 53.9202 370.721C53.9202 367.799 56.2906 365.428 59.2127 365.428H363.421Z" stroke="white" stroke-width="4"/>
<path d="M340.245 321.948C337.32 321.948 334.959 319.581 334.959 316.656V73.8109C334.959 70.8853 337.32 68.5183 340.245 68.5183C343.17 68.5183 345.531 70.8853 345.531 73.8109V316.656C345.531 319.581 343.17 321.948 340.245 321.948Z" stroke="white" stroke-width="4"/>
<path d="M37.7613 348.548C34.8392 348.548 32.4688 346.177 32.4688 343.255V100.404C32.4688 97.4818 34.8392 95.1113 37.7613 95.1113C40.6834 95.1113 43.0539 97.4818 43.0539 100.404V343.249C43.0539 346.179 40.6822 348.548 37.7613 348.548Z" stroke="white" stroke-width="4"/>
<path d="M144.88 182.779V180.779H142.88H72.519H70.519V182.779V320.938C70.519 323.86 68.1485 326.231 65.2265 326.231C62.3044 326.231 59.9339 323.86 59.9339 320.938V175.487C59.9339 172.565 62.3044 170.194 65.2265 170.194H150.18C153.102 170.194 155.472 172.565 155.472 175.487V343.249C155.472 346.176 153.096 348.548 150.173 348.548C147.251 348.548 144.88 346.177 144.88 343.255V182.779Z" stroke="white" stroke-width="4"/>
<path d="M70.519 133.011V135.011H72.519H142.88H144.88V133.011V120.57V118.57H142.88H72.519H70.519V120.57V133.011ZM150.173 145.602H65.2265C62.3044 145.602 59.9339 143.232 59.9339 140.31V113.284C59.9339 110.362 62.3044 107.991 65.2265 107.991H150.18C153.102 107.991 155.472 110.362 155.472 113.284V140.31C155.472 143.23 153.097 145.602 150.173 145.602Z" stroke="white" stroke-width="4"/>
<path d="M303.796 298.49H305.796V296.49V120.577V118.577H303.796H190.938H188.938V120.577V303.782C188.938 306.705 186.567 309.075 183.645 309.075C180.723 309.075 178.353 306.705 178.353 303.782V113.277C178.353 110.355 180.723 107.985 183.645 107.985H311.088C314.013 107.985 316.374 110.352 316.374 113.277V303.773C316.369 306.709 314.005 309.075 311.082 309.075H207.241C204.319 309.075 201.949 306.705 201.949 303.782C201.949 300.86 204.319 298.49 207.241 298.49H303.796Z" stroke="white" stroke-width="4"/>
<path d="M209.954 249.647L209.957 249.643L261.011 161.253L261.012 161.253C262.464 158.736 265.708 157.877 268.245 159.318C270.778 160.789 271.641 164.022 270.174 166.548L270.172 166.552L219.117 254.941L219.115 254.946C218.143 256.638 216.368 257.588 214.54 257.588C213.642 257.588 212.729 257.361 211.886 256.878C209.351 255.408 208.487 252.173 209.954 249.647Z" stroke="white" stroke-width="4"/>
<path d="M255.258 248.312L255.25 248.307L255.241 248.302C252.699 246.85 251.821 243.616 253.281 241.082L253.282 241.079L270.011 211.904C270.011 211.904 270.011 211.903 270.012 211.903C271.477 209.356 274.712 208.493 277.226 209.944L277.226 209.944L277.234 209.948C279.776 211.401 280.654 214.635 279.194 217.169L279.193 217.172L262.464 246.346C262.464 246.347 262.464 246.347 262.464 246.347C261.482 248.053 259.703 249.01 257.869 249.01C256.964 249.01 256.069 248.786 255.258 248.312Z" stroke="white" stroke-width="4"/>
<path d="M155.466 262.591L155.466 262.595C155.47 265.511 153.098 267.884 150.173 267.884H130.866C127.944 267.884 125.574 265.513 125.574 262.591C125.574 259.669 127.944 257.299 130.866 257.299H150.173C153.095 257.299 155.466 259.669 155.466 262.591Z" stroke="white" stroke-width="4"/>
</svg>
