<svg width="36" height="36" viewBox="0 0 36 36" fill="none" xmlns="http://www.w3.org/2000/svg">
<g clip-path="url(#clip0_143_40)">
<path d="M19.8549 17.3473C19.8549 22.8777 15.4102 27.3609 9.92763 27.3609C4.44507 27.3609 0 22.8767 0 17.3473C0 11.8179 4.44473 7.33334 9.92763 7.33334C15.4105 7.33334 19.8549 11.8169 19.8549 17.3473Z" fill="white"/>
<path d="M30.7454 17.3473C30.7454 22.553 28.523 26.7747 25.7816 26.7747C23.0401 26.7747 20.8177 22.553 20.8177 17.3473C20.8177 12.1417 23.0398 7.91995 25.7812 7.91995C28.5227 7.91995 30.745 12.1403 30.745 17.3473" fill="white"/>
<path d="M35.1999 17.3473C35.1999 22.0103 34.4184 25.7927 33.4541 25.7927C32.4898 25.7927 31.7087 22.0113 31.7087 17.3473C31.7087 12.6833 32.4902 8.90186 33.4541 8.90186C34.4181 8.90186 35.1999 12.6829 35.1999 17.3473Z" fill="white"/>
</g>
<defs>
<clipPath id="clip0_143_40">
<rect width="35.2" height="35.2" fill="white"/>
</clipPath>
</defs>
</svg>
