<svg width="101" height="143" viewBox="0 0 101 143" fill="none" xmlns="http://www.w3.org/2000/svg">
<path d="M50.6749 104.803V94.1423C27.7121 94.1423 9.09692 100.752 9.09692 108.898C9.09692 109.237 9.12754 109.542 9.1844 109.872C9.70927 112.714 12.5085 115.346 16.9349 117.522C18.0809 118.083 19.3449 118.619 20.7052 119.119C22.3629 109.429 38.38 104.803 50.6749 104.803Z" fill="#D6259D"/>
<path d="M80.6447 119.124C82.0093 118.624 83.269 118.088 84.415 117.527C88.8457 115.347 91.6406 112.719 92.1655 109.877C92.2223 109.547 92.2529 109.242 92.2529 108.903C92.2529 100.753 73.6378 94.1472 50.6749 94.1472V104.808C62.9743 104.804 78.987 109.429 80.6447 119.124Z" fill="#D6259D"/>
<path d="M80.7628 120.542C80.7628 129.236 67.2912 142.003 50.6749 142.003C34.0586 142.003 20.587 129.236 20.587 120.542C20.587 111.848 34.0586 104.803 50.6749 104.803C67.2912 104.803 80.7628 111.848 80.7628 120.542Z" fill="#7E1596"/>
<path d="M25.4333 120.62C16.1825 118.109 9.98912 114.25 9.18433 109.872C9.83603 114.633 11.1876 121.508 12.7315 126.721C14.7873 132.125 22.0916 136.69 32.1165 139.248C33.4374 139.583 34.5309 138.2 33.9054 136.994C31.8716 133.069 30.1833 128.522 29.0679 124.28C28.5999 122.504 27.2178 121.108 25.4333 120.62Z" fill="#A574A5"/>
<path d="M75.921 120.62C85.1717 118.109 91.3651 114.25 92.1699 109.872C91.5182 114.633 90.1667 121.508 88.6227 126.721C86.567 132.125 79.2626 136.69 69.2377 139.248C67.9168 139.583 66.8233 138.2 67.4488 136.994C69.4826 133.069 71.1709 128.522 72.2863 124.28C72.7543 122.504 74.1364 121.108 75.921 120.62Z" fill="#A574A5"/>
<path d="M64.0633 115.025C64.0633 118.893 58.0711 124.572 50.6749 124.572C43.2831 124.572 37.2865 118.893 37.2865 115.025C37.2865 111.156 43.2787 108.023 50.6749 108.023C58.0668 108.019 64.0633 111.156 64.0633 115.025Z" fill="#EE9A96"/>
<path d="M41.6123 97.9766L41.1006 110.574C41.1006 117.379 43.738 123.127 50.675 123.123C57.7694 123.123 60.2494 117.475 60.2494 110.574L59.7377 97.9766H41.6123Z" fill="#EE9A96"/>
<path d="M85.0492 52.8352C85.0492 55.1849 84.9311 57.4955 84.6993 59.7669C82.0312 86.1839 62.1126 103.05 50.6749 103.05C39.2373 103.05 19.3143 86.1796 16.655 59.7538C16.4231 57.4911 16.3051 55.1849 16.3051 52.8395C16.3051 23.1459 31.6967 5.77966 50.6793 5.77966C69.6619 5.77966 85.0492 23.1416 85.0492 52.8352Z" fill="#F6B5A8"/>
<path d="M50.6749 104.059C48.0375 104.059 44.9583 103.189 41.7697 101.548C41.5204 101.418 41.4198 101.113 41.551 100.865C41.6823 100.617 41.9884 100.521 42.2377 100.648C45.2819 102.214 48.1993 103.045 50.6749 103.045C52.3982 103.045 54.3184 102.649 56.3741 101.87C56.6365 101.77 56.9339 101.901 57.0345 102.166C57.1351 102.427 57.0039 102.723 56.7371 102.823C54.5677 103.641 52.5251 104.059 50.6749 104.059Z" fill="#C9555D"/>
<path d="M86.6719 52.8352C86.6719 55.1849 86.545 57.4955 86.3045 59.7669C85.4778 61.8729 84.8305 63.5221 84.8217 63.5482C84.7605 63.5438 84.6992 63.5134 84.6468 63.4829L84.6118 63.5656C82.3636 62.6736 80.7584 59.8191 81.3751 56.8123C82.0356 53.5749 82.5123 49.4237 81.9175 44.8461C80.9946 37.7403 77.9547 27.3188 71.3239 25.5C68.669 24.7733 65.3449 25.3825 60.1924 27.2623C54.6333 29.29 46.6816 29.277 41.153 27.2623C36.0006 25.3825 32.6764 24.7733 30.0215 25.5C23.3951 27.3188 20.3508 37.736 19.428 44.8461C18.8331 49.4237 19.3055 53.5749 19.9703 56.8123C20.5914 59.7973 19.0037 62.6605 16.7337 63.5656L16.6987 63.4829C16.6462 63.5134 16.5937 63.5438 16.5325 63.5656C16.4975 63.4873 16.4756 63.4264 16.4581 63.3872C16.4537 63.3654 16.445 63.3437 16.4275 63.3176C16.2744 62.9129 15.8851 61.9251 15.0366 59.7538C14.796 57.4911 14.6692 55.1849 14.6692 52.8395C14.6692 23.1459 30.7869 5.77966 50.6662 5.77966C70.5454 5.77966 86.6719 23.1416 86.6719 52.8352Z" fill="#D97A80"/>
<path d="M42.7452 61.0069C42.7102 61.0069 42.6796 61.007 42.6446 61.0026C39.8191 60.785 36.941 59.7842 34.3998 58.9052C32.1254 58.1177 29.9822 57.3649 28.5782 57.4519C27.8828 57.4824 27.2704 56.9602 27.231 56.2596C27.1917 55.5591 27.7253 54.9586 28.4295 54.9194C30.3365 54.815 32.6109 55.5982 35.2396 56.512C37.6321 57.3431 40.3439 58.283 42.8414 58.4745C43.5456 58.5267 44.0705 59.1402 44.0136 59.8364C43.9655 60.5022 43.4056 61.0069 42.7452 61.0069Z" fill="#A138BF"/>
<path d="M58.6266 61.0071C57.9049 61.0071 57.332 60.437 57.3363 59.7365C57.3363 59.0359 57.9093 58.4702 58.6135 58.4702C60.2668 58.4702 62.3707 57.687 64.6013 56.8559C67.3831 55.8203 70.2567 54.7542 72.9336 54.9195C73.6377 54.963 74.1714 55.5635 74.1276 56.2641C74.0839 56.9647 73.4847 57.4955 72.7761 57.452C70.646 57.3215 68.0261 58.2918 65.4936 59.2361C63.0399 60.1455 60.7217 61.0114 58.6266 61.0071Z" fill="#A138BF"/>
<path d="M40.287 66.4723C40.0552 66.4723 39.8146 66.4375 39.5828 66.3635C36.7704 65.4584 34.5922 64.9885 32.4315 65.4149C31.1894 65.6629 29.9778 64.8579 29.7329 63.6221C29.4836 62.3864 30.2927 61.181 31.5349 60.9374C35.0078 60.2498 38.24 61.1332 40.9912 62.0208C42.1984 62.4081 42.8589 63.6961 42.4696 64.8971C42.159 65.8544 41.258 66.4723 40.287 66.4723Z" fill="#54046A"/>
<path d="M61.0672 66.4723C60.1049 66.4723 59.2083 65.8675 58.889 64.9102C58.4866 63.7136 59.1383 62.4212 60.3411 62.0209C63.3066 61.0375 66.5127 60.2281 69.8543 60.9374C71.0965 61.2028 71.8838 62.4169 71.617 63.6483C71.3502 64.8841 70.1342 65.6673 68.892 65.4019C66.7532 64.945 64.505 65.4498 61.7932 66.3505C61.5527 66.4332 61.3077 66.4723 61.0672 66.4723Z" fill="#54046A"/>
<path d="M51.9347 81.8544C50.3251 81.8544 49.1529 81.5846 48.0594 80.9754C47.0972 80.4402 46.4848 79.7353 46.2924 78.939C46.1087 78.1862 46.2924 77.3942 46.8303 76.5805C48.0813 74.7008 48.8904 71.7157 48.8904 68.9787C48.803 65.3628 48.0944 62.7824 46.791 61.3117C46.6029 61.1028 46.6248 60.7808 46.8347 60.5937C47.0447 60.4066 47.3683 60.4283 47.5564 60.6372C49.026 62.2907 49.8177 65.093 49.9139 68.9657C49.9139 71.9464 49.061 75.075 47.6833 77.1419C47.3071 77.7075 47.1715 78.2341 47.2852 78.6997C47.4427 79.348 48.0638 79.8136 48.558 80.0877C49.5596 80.6447 50.6662 80.8492 52.2583 80.8318C52.547 80.8275 52.7744 81.0494 52.7788 81.3279C52.7832 81.6064 52.5601 81.8413 52.2802 81.8457C52.1665 81.8544 52.0484 81.8544 51.9347 81.8544Z" fill="#C9555D"/>
<path d="M45.1333 88.8034C44.5516 88.8034 44.0223 88.4031 43.8911 87.8113C43.738 87.1281 44.1711 86.4493 44.8578 86.297C48.8117 85.4137 52.8926 85.4137 56.9865 86.297C57.6732 86.445 58.115 87.1194 57.9619 87.8069C57.8132 88.4901 57.1352 88.9252 56.4441 88.7773C52.7132 87.9766 49.0042 87.9766 45.4132 88.7773C45.317 88.7947 45.2252 88.8034 45.1333 88.8034Z" fill="#A11D74"/>
<path d="M21.3175 65.1273C20.7839 61.5505 19.0256 56.5203 15.5396 56.1853C12.9984 55.9416 10.8159 58.8135 13.4533 67.2247C14.9448 71.9851 18.4002 77.1806 20.6396 76.6584C22.2798 76.2711 22.1442 70.6405 21.3175 65.1273Z" fill="#F6B5A8"/>
<path d="M19.7385 66.642C18.9119 61.7162 16.3094 58.4919 15.041 58.7573C13.427 59.0924 13.7551 62.9955 14.8048 66.2199C15.4215 68.1084 17.486 72.3161 19.0693 71.6068C19.9485 71.2152 20.154 69.1092 19.7385 66.642Z" fill="#F19293"/>
<path d="M19.2137 69.7924C19.0038 69.7924 18.7807 69.7228 18.562 69.5835C18.0809 69.2833 17.5079 68.5871 17.3592 67.5253C17.2018 66.4288 17.3636 65.5368 17.8447 64.8014C17.9147 64.6926 18.0634 64.6621 18.1727 64.7318C18.2821 64.8057 18.3127 64.9493 18.2427 65.0581C17.8272 65.6934 17.6916 66.4766 17.8316 67.4557C17.9584 68.3564 18.4396 68.9482 18.8157 69.1788C19.0082 69.2963 19.1919 69.3398 19.3275 69.2963C19.7167 69.1701 19.7736 68.2868 19.5068 66.6768C18.8901 62.9912 17.2149 60.1498 15.8852 59.2447C15.5747 59.0358 15.2947 58.9401 15.0935 58.9836C14.8442 59.0358 14.6518 59.1968 14.4987 59.4797C13.7289 60.9069 14.3806 64.6056 15.426 67.2164C15.4741 67.3382 15.4128 67.4775 15.2904 67.5253C15.1679 67.5732 15.0279 67.5123 14.9798 67.3904C13.8732 64.6186 13.2303 60.8199 14.0788 59.2534C14.2975 58.8444 14.608 58.6007 14.9973 58.518C15.3385 58.4484 15.7278 58.5572 16.1564 58.8487C17.5298 59.7799 19.31 62.6039 19.9792 66.5941C20.3116 68.5783 20.1629 69.5182 19.4805 69.7445C19.3931 69.7793 19.3056 69.7924 19.2137 69.7924Z" fill="#C9555D"/>
<path d="M80.0323 65.1273C80.5659 61.5505 82.3242 56.5203 85.8102 56.1853C88.3514 55.9416 90.534 58.8135 87.8966 67.2247C86.4051 71.9851 82.9497 77.1806 80.7103 76.6584C79.0745 76.2711 79.21 70.6405 80.0323 65.1273Z" fill="#F6B5A8"/>
<path d="M81.6156 66.642C82.4423 61.7162 85.0447 58.4919 86.3132 58.7573C87.9271 59.0924 87.5991 62.9955 86.5494 66.2199C85.9326 68.1084 83.8682 72.3161 82.2848 71.6068C81.4057 71.2152 81.2001 69.1092 81.6156 66.642Z" fill="#F19293"/>
<path d="M82.1406 69.7926C82.0487 69.7926 81.9612 69.7795 81.8825 69.7534C81.2002 69.5315 81.0515 68.5873 81.3839 66.603C82.0531 62.6085 83.8333 59.7888 85.2067 58.8576C85.6353 58.5661 86.0246 58.4573 86.3657 58.5269C86.755 58.6096 87.0612 58.8576 87.2842 59.2623C88.1284 60.8288 87.4898 64.6319 86.3832 67.3993C86.3351 67.5212 86.1952 67.5821 86.0727 67.5342C85.9502 67.4864 85.889 67.3471 85.9371 67.2253C86.9824 64.6145 87.6342 60.9115 86.8644 59.4886C86.7113 59.2058 86.5188 59.0448 86.2695 58.9925C86.0727 58.949 85.7884 59.0447 85.4778 59.2536C84.1438 60.1587 82.473 63.0045 81.8563 66.6857C81.5851 68.2957 81.6463 69.179 82.0356 69.3052C82.1668 69.3487 82.3549 69.3052 82.5473 69.1877C82.9191 68.9571 83.4002 68.3653 83.5315 67.4646C83.6714 66.4856 83.5358 65.7023 83.1203 65.067C83.0503 64.9582 83.0809 64.8103 83.1903 64.7407C83.2996 64.671 83.4484 64.7015 83.5183 64.8103C83.9995 65.5457 84.1613 66.4377 84.0038 67.5342C83.8508 68.596 83.2821 69.2965 82.801 69.5924C82.5692 69.723 82.3461 69.7926 82.1406 69.7926Z" fill="#C9555D"/>
<path d="M53.0018 92.9413H48.2824C47.5782 92.9413 47.0052 92.3713 47.0052 91.6707C47.0052 90.9702 47.5782 90.4001 48.2824 90.4001H53.0018C53.706 90.4001 54.279 90.9702 54.279 91.6707C54.279 92.3757 53.706 92.9413 53.0018 92.9413Z" fill="#DA5C6D"/>
<path d="M35.2833 61.9032C35.1521 61.9032 35.0427 61.8032 35.0296 61.6726C34.7409 58.457 33.4463 41.8566 36.3112 30.6214C36.3461 30.4865 36.4861 30.4038 36.6217 30.4386C36.7573 30.4734 36.8404 30.6127 36.8054 30.7476C33.958 41.9044 35.2483 58.4309 35.537 61.6291C35.5501 61.7684 35.4451 61.8902 35.3052 61.9032C35.3008 61.9032 35.292 61.9032 35.2833 61.9032Z" fill="white"/>
<path d="M25.0834 77.3641C24.9828 77.3641 24.891 77.3075 24.8472 77.2074C23.1677 73.2259 22.2841 69.0312 22.2185 64.7365L22.1354 59.3799C18.9644 56.9127 16.0951 53.5143 14.7961 50.699C14.7392 50.5728 14.7917 50.4205 14.9229 50.3639C15.0497 50.3074 15.2028 50.3596 15.2597 50.4901C16.5369 53.2663 19.3974 56.6299 22.5422 59.0579C22.6034 59.1058 22.6384 59.1754 22.6428 59.2537L22.7303 64.7321C22.7959 68.9616 23.6663 73.091 25.3196 77.0116C25.3721 77.1421 25.3108 77.2901 25.184 77.3423C25.149 77.3597 25.114 77.3641 25.0834 77.3641Z" fill="white"/>
<path d="M27.0123 81.5934C26.9992 81.5934 26.9861 81.5934 26.9817 81.5891C26.8899 81.5499 26.833 81.4586 26.833 81.3585C26.833 81.2584 26.9074 81.1583 26.9992 81.1192C27.008 81.1148 27.0211 81.1104 27.0298 81.1061C27.4628 80.9146 32.296 78.7346 35.7295 75.854C35.6201 73.5478 35.4495 69.723 35.3402 67.1165C35.3358 66.9773 35.4452 66.8598 35.5851 66.8511C35.7338 66.8511 35.8432 66.9555 35.8519 67.0947C35.9657 69.7491 36.1406 73.6609 36.25 75.9541C36.2543 76.0324 36.2193 76.1064 36.1625 76.1586C33.3195 78.5736 28.5782 81.0756 27.301 81.5238C27.2791 81.5456 27.2529 81.5673 27.2223 81.5804L27.2092 81.5543C27.1129 81.576 27.0517 81.5934 27.0123 81.5934Z" fill="white"/>
<path d="M84.9399 77.3635C84.5462 77.3635 84.1438 77.2025 83.7633 76.8892C83.2822 76.4933 82.8973 75.8884 82.6829 75.1922C82.2149 73.691 82.6567 72.2725 83.6846 71.9548C83.8202 71.9157 83.9601 71.9896 84.0039 72.1202C84.0432 72.2551 83.9689 72.3943 83.8377 72.4378C83.1072 72.6641 82.801 73.8564 83.1728 75.0399C83.3609 75.6448 83.6889 76.1582 84.0913 76.4933C84.4675 76.8022 84.8611 76.9154 85.1979 76.8109C85.6309 76.676 85.8321 76.2714 85.924 75.9494C86.1514 75.1661 85.9896 73.9173 85.2329 73.0383C85.1411 72.9295 85.1542 72.7729 85.2592 72.6815C85.3685 72.5901 85.526 72.6032 85.6178 72.7076C86.4007 73.617 86.7244 75.0095 86.4095 76.0886C86.2302 76.7065 85.8496 77.1373 85.3423 77.2939C85.2154 77.3418 85.0798 77.3635 84.9399 77.3635Z" fill="#C19ABF"/>
<path d="M14.6823 109.159C14.4986 109.159 14.3193 109.094 14.1705 108.963C13.8556 108.685 13.8294 108.202 14.1093 107.889C19.5154 101.884 31.1193 99.3556 35.8562 98.5506C36.2761 98.4766 36.6697 98.7595 36.7397 99.1728C36.8097 99.5862 36.5298 99.9822 36.1143 100.052C31.5348 100.831 20.3377 103.259 15.2509 108.907C15.1022 109.072 14.8922 109.159 14.6823 109.159Z" fill="#FF7BFF"/>
<path d="M86.6718 109.159C86.4619 109.159 86.2519 109.072 86.1032 108.907C80.9639 103.193 69.605 100.778 64.9643 100.004C64.5488 99.9343 64.2645 99.5427 64.3344 99.1293C64.4044 98.7159 64.7981 98.4331 65.2136 98.5027C70.0161 99.3034 81.7774 101.818 87.2404 107.889C87.5203 108.202 87.4941 108.685 87.1792 108.963C87.0348 109.094 86.8555 109.159 86.6718 109.159Z" fill="#FF7BFF"/>
<path d="M17.2455 111.879C17.0662 111.879 16.8825 111.813 16.7338 111.683C16.4189 111.404 16.3926 110.921 16.6725 110.608C21.7069 105.017 32.4928 102.667 36.9017 101.919C37.3172 101.845 37.7152 102.127 37.7852 102.541C37.8552 102.954 37.5753 103.35 37.1598 103.42C32.9127 104.142 22.5292 106.392 17.8141 111.626C17.6654 111.792 17.4555 111.879 17.2455 111.879Z" fill="#FF7BFF"/>
<path d="M84.1089 111.879C83.8989 111.879 83.689 111.792 83.5403 111.626C78.7771 106.335 68.2449 104.094 63.941 103.376C63.5255 103.306 63.2411 102.915 63.3111 102.501C63.3811 102.088 63.7748 101.805 64.1903 101.875C68.656 102.619 79.5907 104.96 84.6775 110.608C84.9574 110.921 84.9312 111.404 84.6163 111.683C84.4719 111.813 84.2882 111.879 84.1089 111.879Z" fill="#FF7BFF"/>
<path d="M64.5576 80.7622C64.1464 81.4976 63.2104 81.763 62.4712 81.3496C61.732 80.9406 61.4652 80.0094 61.8807 79.274C62.2919 78.5387 63.2279 78.2732 63.9671 78.6866C64.7063 79.0956 64.9687 80.0225 64.5576 80.7622Z" fill="#FFFDFE"/>
<path d="M70.283 81.6674C70.2743 81.6674 70.2655 81.6674 70.2612 81.6674C67.7637 81.4368 63.3417 80.3098 63.1536 80.262C63.018 80.2271 62.9349 80.0879 62.9699 79.953C63.0049 79.8181 63.1449 79.7354 63.2805 79.7703C63.3242 79.7833 67.7899 80.919 70.2568 81.1583C73.5984 80.1314 76.7607 78.4779 79.1664 76.498C79.2757 76.411 79.4332 76.4241 79.525 76.5328C79.6169 76.6416 79.5994 76.8026 79.49 76.8897C77.0232 78.9217 73.7821 80.6188 70.3574 81.6631C70.3355 81.6674 70.3093 81.6674 70.283 81.6674Z" fill="white"/>
<path d="M67.1425 85.7493C66.7095 86.4716 65.7647 86.7109 65.0386 86.2801C64.3126 85.8493 64.072 84.9095 64.505 84.1871C64.938 83.4648 65.8828 83.2255 66.6089 83.6563C67.3393 84.0871 67.5799 85.0269 67.1425 85.7493Z" fill="#FFFDFE"/>
<path d="M56.3434 112.631C55.9104 113.354 54.9656 113.593 54.2396 113.162C53.5135 112.731 53.2729 111.792 53.706 111.069C54.139 110.347 55.0837 110.108 55.8098 110.538C56.5402 110.969 56.7764 111.909 56.3434 112.631Z" fill="#FFFDFE"/>
<path d="M70.5105 85.936C70.5018 85.936 70.4887 85.936 70.4799 85.936L70.3225 85.9142C68.9578 85.7402 67.2607 85.527 65.778 85.218C65.638 85.1876 65.5506 85.0527 65.5812 84.9178C65.6118 84.7829 65.7474 84.6958 65.883 84.722C67.3482 85.0266 69.0365 85.2398 70.3881 85.4138L70.493 85.4269C73.008 84.6567 75.02 83.6211 76.8133 82.1677C76.9226 82.0807 77.0845 82.0937 77.1719 82.2025C77.2594 82.3113 77.2463 82.4723 77.1369 82.5593C75.2781 84.0649 73.1961 85.1353 70.5893 85.9229C70.5586 85.9316 70.5324 85.936 70.5105 85.936Z" fill="white"/>
<path d="M55.0269 112.105C54.9569 112.105 54.8913 112.079 54.8388 112.022C54.7426 111.918 54.747 111.761 54.8519 111.666C57.1876 109.507 57.5594 105.104 57.4588 101.792C57.4544 101.653 57.5637 101.536 57.7081 101.531C57.8393 101.531 57.9661 101.636 57.9705 101.779C58.0755 105.199 57.6774 109.751 55.2018 112.04C55.1494 112.083 55.0881 112.105 55.0269 112.105Z" fill="#FFFDFE"/>
<path d="M32.1166 139.244C31.8192 139.17 31.5305 139.092 31.2375 139.014C31.3425 138.653 31.3206 138.252 31.1194 137.865C29.0855 133.94 26.8505 130.133 25.7352 125.894C25.2672 124.11 23.8894 122.718 22.1005 122.235C17.3417 120.943 13.1603 118.358 10.1161 115.56C9.73116 113.51 9.41187 111.557 9.18005 109.864C9.98485 114.241 16.1826 118.105 25.429 120.612C27.2135 121.099 28.5913 122.496 29.0637 124.271C30.1834 128.514 31.8717 133.065 33.9012 136.986C34.531 138.2 33.4375 139.579 32.1166 139.244Z" fill="#C19ABF"/>
<path d="M69.2334 139.244C69.5308 139.166 69.8195 139.092 70.1125 139.014C70.0032 138.653 70.0294 138.252 70.2306 137.865C72.2645 133.94 74.4995 130.133 75.6148 125.894C76.0828 124.11 77.4606 122.718 79.2495 122.235C84.0127 120.943 88.1897 118.358 91.2339 115.56C91.6188 113.51 91.9381 111.557 92.1699 109.864C91.3651 114.241 85.1674 118.101 75.921 120.612C74.1365 121.099 72.7587 122.496 72.2863 124.271C71.1666 128.514 69.4783 133.065 67.4488 136.986C66.819 138.2 67.9125 139.579 69.2334 139.244Z" fill="#C19ABF"/>
<path d="M88.4652 30.6778C81.3752 5.90123 53.2599 -0.852063 50.6006 5.77504C48.0113 -0.664956 19.8916 5.66191 12.7316 30.6822C10.4659 38.606 10.3435 48.0484 14.7348 55.3978C15.7583 57.1123 17.158 57.6606 19.1656 57.5779C21.9211 57.4647 23.9987 55.0062 26.2425 50.5983C29.1511 44.8893 30.2883 36.1953 35.0646 31.9049C41.761 25.8913 47.3202 25.8913 50.6006 25.8391C54.782 25.8913 59.5014 26.3526 66.1366 31.9049C71.0616 36.0256 72.0501 44.8893 74.9587 50.5983C77.2068 55.0062 79.2844 57.4647 82.0356 57.5779C84.0388 57.6606 85.4385 57.1123 86.4663 55.3978C90.8577 48.0484 90.7352 38.6016 88.4652 30.6778Z" fill="#7E1596"/>
<path d="M12.7884 45.4115C12.5566 45.4115 12.3467 45.2548 12.2942 45.0199C12.2286 44.7457 12.3992 44.4716 12.6747 44.4107C15.9333 43.6492 18.1814 38.8888 20.5652 33.8456C21.838 31.1521 23.1545 28.3673 24.7029 26.0262C27.5765 21.6923 31.3511 18.3591 35.3357 16.6404C40.3176 14.4908 45.505 14.7432 50.758 17.3844C51.0117 17.5106 51.1123 17.8152 50.9811 18.0676C50.8542 18.3156 50.5481 18.4157 50.2944 18.2895C36.906 11.5493 27.9701 22.9368 25.5514 26.5832C24.0424 28.859 22.7434 31.6134 21.4837 34.272C18.995 39.5459 16.6418 44.5238 12.9065 45.3984C12.8672 45.4071 12.8278 45.4115 12.7884 45.4115Z" fill="#A138BF"/>
<path d="M36.1318 64.4923C36.9314 64.4923 37.5796 63.8474 37.5796 63.052C37.5796 62.2565 36.9314 61.6117 36.1318 61.6117C35.3323 61.6117 34.6841 62.2565 34.6841 63.052C34.6841 63.8474 35.3323 64.4923 36.1318 64.4923Z" fill="#FF7BFF"/>
<path d="M14.2144 29.6818C14.1181 29.6818 14.0219 29.6557 13.9388 29.5991C13.7026 29.4468 13.6326 29.1335 13.7857 28.8985C13.8426 28.8115 19.4936 20.1393 24.9347 14.7131C27.7209 11.937 33.1226 8.70825 39.2242 8.70825C39.2548 8.70825 39.2854 8.70825 39.316 8.70825C43.6986 8.73001 47.6964 10.4618 50.8849 13.7123C51.0817 13.9125 51.0774 14.2345 50.8762 14.4303C50.675 14.6261 50.3513 14.6217 50.1545 14.4216C47.119 11.3278 43.4712 9.74823 39.3116 9.72647C39.281 9.72647 39.2504 9.72647 39.2242 9.72647C33.4375 9.72647 28.307 12.7942 25.6608 15.4354C20.294 20.7789 14.6999 29.3598 14.643 29.4468C14.5468 29.5991 14.3806 29.6818 14.2144 29.6818Z" fill="#A138BF"/>
<path d="M88.2464 45.4116C88.2071 45.4116 88.1677 45.4073 88.1284 45.3986C84.3931 44.5239 82.0399 39.546 79.5512 34.2765C78.2915 31.6135 76.9925 28.8634 75.4835 26.5833C73.0647 22.9325 64.1289 11.5494 50.7405 18.2896C50.4912 18.4158 50.1806 18.3157 50.0538 18.0677C49.927 17.8153 50.0276 17.5107 50.2769 17.3845C55.5299 14.7389 60.7173 14.4909 65.6948 16.6405C69.6794 18.3593 73.4584 21.6924 76.3277 26.0263C77.876 28.363 79.1925 31.1522 80.4653 33.8457C82.8491 38.8846 85.0973 43.6493 88.3514 44.4108C88.627 44.4761 88.7976 44.7502 88.7319 45.02C88.6882 45.2506 88.4783 45.4116 88.2464 45.4116Z" fill="#A138BF"/>
<path d="M86.825 29.6818C86.6588 29.6818 86.4926 29.5991 86.3964 29.4511C86.3395 29.3641 80.7453 20.7833 75.383 15.4354C72.7368 12.7942 67.6018 9.72647 61.8196 9.72647C61.789 9.72647 61.7627 9.72647 61.7321 9.72647C57.5726 9.74823 53.9247 11.3278 50.8893 14.4216C50.6925 14.6217 50.3688 14.6261 50.1676 14.4303C49.9664 14.2345 49.962 13.9125 50.1588 13.7123C53.3474 10.4618 57.3451 8.73436 61.7277 8.70825C61.7583 8.70825 61.789 8.70825 61.8196 8.70825C67.9168 8.70825 73.3229 11.937 76.109 14.7131C81.5457 20.1393 87.2012 28.8115 87.258 28.8942C87.4111 29.1291 87.3411 29.4424 87.1049 29.5947C87.0131 29.6557 86.9169 29.6818 86.825 29.6818Z" fill="#A138BF"/>
<path d="M4.67524 3.4515C1.12365 6.75853 -1.82871 17.2409 2.95193 22.3277C7.73257 27.4144 15.12 25.9958 20.8542 20.6611C26.5883 15.3263 28.5041 8.08569 23.7234 2.99896C18.9428 -2.08777 8.2312 0.144471 4.67524 3.4515Z" fill="#71118A"/>
<path d="M25.5646 5.68881C23.4957 2.68638 19.1875 3.03884 17.0005 4.3486C13.4577 6.46771 13.8732 11.9678 11.4195 16.8805C8.90013 21.9107 5.43603 24.1081 2.36557 21.6278C-1.57092 16.3366 1.28085 6.61565 4.67497 3.45222C8.23093 0.149545 18.9425 -2.08705 23.7232 2.99968C24.5149 3.84384 25.1228 4.74457 25.5646 5.68881Z" fill="#A138BF"/>
<path d="M2.82034 14.8129C2.06366 14.8129 1.34197 14.5475 0.825856 14.0384C0.633406 13.8469 0.633406 13.538 0.825856 13.3509C1.01831 13.1594 1.32885 13.1594 1.51693 13.3509C2.08553 13.9122 3.06965 14.0036 3.91818 13.5728C4.87606 13.0811 6.87055 12.0629 8.72507 7.8203C10.5096 3.73874 13.5669 1.55436 17.8052 1.32809C18.8112 1.27152 19.8741 1.38465 21.0506 1.67184C21.3131 1.73711 21.4749 1.99819 21.4093 2.25928C21.3437 2.52036 21.0813 2.68136 20.8188 2.61609C19.7385 2.35501 18.7675 2.25057 17.8577 2.29844C13.9606 2.5073 11.2663 4.44365 9.62171 8.20757C7.86342 12.2282 5.9739 13.6163 4.36432 14.4387C3.87444 14.6911 3.33646 14.8129 2.82034 14.8129Z" fill="#7E1596"/>
<path d="M96.5219 3.45186C100.073 6.75889 103.03 17.2413 98.2452 22.328C93.4601 27.4148 86.077 25.9962 80.3429 20.6615C74.6088 15.3267 72.693 8.08605 77.4736 2.99932C82.2543 -2.08741 92.9659 0.144838 96.5219 3.45186Z" fill="#71118A"/>
<path d="M75.6322 5.68845C77.701 2.68602 82.0093 3.03848 84.1962 4.34823C87.7391 6.46734 87.3236 11.9674 89.7773 16.8801C92.2967 21.9146 95.7608 24.1121 98.8312 21.6274C102.768 16.3362 99.9159 6.61529 96.5218 3.45185C92.9659 0.149179 82.2586 -2.08741 77.4736 2.99931C76.6819 3.84348 76.074 4.7442 75.6322 5.68845Z" fill="#A138BF"/>
<path d="M97.7554 14.944C97.2393 14.944 96.7013 14.8221 96.207 14.5654C94.5931 13.7387 92.7079 12.3549 90.9496 8.33428C89.3007 4.56601 86.6064 2.63401 82.7136 2.42515C81.8039 2.37728 80.8372 2.48171 79.7525 2.7428C79.4901 2.80807 79.2233 2.64707 79.1621 2.38598C79.0965 2.1249 79.2583 1.85947 79.5207 1.79855C80.6973 1.51136 81.7601 1.39823 82.7661 1.4548C87.0088 1.68542 90.0617 3.8698 91.8463 7.94701C93.7052 12.1896 95.6953 13.2121 96.6532 13.6995C97.5017 14.1346 98.4902 14.0433 99.0544 13.4776C99.2469 13.2861 99.5574 13.2861 99.7455 13.4776C99.938 13.669 99.938 13.978 99.7455 14.1651C99.2381 14.6829 98.5164 14.944 97.7554 14.944Z" fill="#7E1596"/>
<path d="M25.0834 77.364C24.9872 77.364 24.8953 77.3074 24.8516 77.216C24.7947 77.0898 24.8472 76.9375 24.9784 76.881L35.7075 71.9683C35.8344 71.9117 35.9875 71.964 36.0443 72.0945C36.1012 72.2207 36.0487 72.373 35.9175 72.4295L25.1884 77.3422C25.1534 77.3553 25.1184 77.364 25.0834 77.364Z" fill="white"/>
<path d="M68.4285 41.3565C68.4285 49.3674 60.4461 48.7538 50.5962 48.7538C40.7462 48.7538 32.7639 49.3674 32.7639 41.3565C32.7639 33.3457 40.7462 19.739 50.5962 19.739C60.4461 19.739 68.4285 33.3457 68.4285 41.3565Z" fill="#A138BF"/>
<path d="M46.0824 47.4307C45.7412 47.4307 45.4656 47.1522 45.47 46.8171C45.5356 36.7133 46.7516 28.7416 49.1747 22.4496C49.2972 22.1363 49.6514 21.9796 49.9664 22.0971C50.2813 22.219 50.4387 22.5714 50.3206 22.8847C47.95 29.0375 46.7647 36.87 46.6947 46.8258C46.6903 47.1609 46.4148 47.4307 46.0824 47.4307Z" fill="#7E1596"/>
<path d="M37.9689 46.365C37.6102 46.3606 37.3478 46.0734 37.3565 45.7384C37.6408 36.1741 41.5773 27.0928 47.8888 21.4448C48.1381 21.2185 48.5274 21.2403 48.7548 21.4883C48.9823 21.7363 48.9604 22.1236 48.7111 22.3499C42.6445 27.7804 38.8568 36.5396 38.5856 45.7732C38.5681 46.1039 38.2969 46.3693 37.9689 46.365Z" fill="#7E1596"/>
<path d="M55.1145 47.4353C54.7777 47.4353 54.5065 47.1655 54.5021 46.8304C54.4365 36.9572 53.2731 29.177 50.9418 23.046C50.8237 22.7327 50.9812 22.3802 51.2961 22.2584C51.611 22.1409 51.9653 22.2975 52.0834 22.6108C54.4671 28.8768 55.6568 36.7962 55.7268 46.8174C55.7312 47.1568 55.46 47.4309 55.1145 47.4353Z" fill="#7E1596"/>
<path d="M63.228 46.3644C62.8999 46.3688 62.6244 46.1034 62.6156 45.7727C62.3401 36.5347 58.5567 27.7798 52.4901 22.345C52.2364 22.1187 52.219 21.7358 52.4464 21.4834C52.6738 21.2354 53.0587 21.2136 53.3124 21.4399C59.6239 27.0923 63.5604 36.1736 63.8447 45.7335C63.8534 46.0729 63.5866 46.3601 63.228 46.3644Z" fill="#7E1596"/>
<path d="M34.7409 50.1589C34.7103 50.1589 34.6797 50.1546 34.6535 50.1415C31.6442 49.0363 29.9865 48.3009 27.8302 47.113C27.7078 47.0434 27.664 46.8911 27.7296 46.7692C27.7996 46.6474 27.9527 46.5995 28.0752 46.6691C30.2052 47.844 31.8454 48.5707 34.8284 49.6672C34.9596 49.7151 35.0296 49.863 34.9771 49.9936C34.9421 50.0937 34.8459 50.1589 34.7409 50.1589Z" fill="white"/>
<path d="M34.8021 53.5268C34.7802 53.5268 34.7584 53.5225 34.7365 53.5181C31.1631 52.5869 28.7618 51.8907 26.2949 50.8856C26.1637 50.8334 26.1025 50.6854 26.155 50.5549C26.2075 50.4243 26.3562 50.3634 26.4874 50.4156C28.928 51.4121 31.3161 52.0996 34.8677 53.0264C35.0033 53.0612 35.0864 53.2005 35.0514 53.3354C35.0164 53.4529 34.9158 53.5268 34.8021 53.5268Z" fill="white"/>
<path d="M23.4213 72.3688C23.3032 72.3688 23.1983 72.2904 23.172 72.173C23.1414 72.0381 23.2289 71.8988 23.3645 71.8684L35.5676 69.1227C35.7031 69.0922 35.8431 69.1792 35.8737 69.3141C35.9043 69.449 35.8169 69.5883 35.6813 69.6187L23.4782 72.3644C23.4563 72.3688 23.4388 72.3688 23.4213 72.3688Z" fill="white"/>
</svg>
