<svg width="87" height="143" viewBox="0 0 87 143" fill="none" xmlns="http://www.w3.org/2000/svg">
<path d="M79.1175 119.636C79.1175 128.699 63.2433 142.007 43.6654 142.007C24.083 142.007 8.21326 128.699 8.21326 119.636C8.21326 110.574 24.0876 103.23 43.6699 103.23C63.2523 103.23 79.1175 110.574 79.1175 119.636Z" fill="#3C4A56"/>
<path d="M43.6654 92.113V103.226C26.4107 103.226 12.0341 108.932 8.86733 116.488C4.29766 114.22 1.41511 111.476 0.87379 108.514C0.860257 108.419 0.842213 108.324 0.833191 108.229C0.801613 107.984 0.783569 107.739 0.783569 107.498C0.783569 99.0029 19.9825 92.113 43.6654 92.113Z" fill="#30D600"/>
<path d="M43.6654 92.113V103.226C60.9201 103.226 75.2967 108.932 78.4635 116.488C83.0331 114.22 85.9157 111.476 86.457 108.514C86.475 108.419 86.4886 108.324 86.4976 108.229C86.5292 107.984 86.5427 107.743 86.5427 107.498C86.5472 99.0029 67.3483 92.113 43.6654 92.113Z" fill="#30D600"/>
<path d="M6.53957 107.317C6.35011 107.317 6.16516 107.249 6.01178 107.113C5.68699 106.818 5.65992 106.319 5.94863 105.992C11.5243 99.7328 23.492 97.0976 28.3774 96.2584C28.8105 96.1859 29.2165 96.4761 29.2887 96.907C29.3608 97.3379 29.0721 97.7507 28.6436 97.8233C23.9206 98.6352 12.3723 101.166 7.12601 107.054C6.97263 107.231 6.7561 107.317 6.53957 107.317Z" fill="#BBFF93"/>
<path d="M80.791 107.317C80.5745 107.317 80.358 107.226 80.2046 107.053C74.8996 101.098 63.189 98.5806 58.4028 97.7732C57.9743 97.7007 57.6811 97.2924 57.7532 96.857C57.8254 96.4261 58.2314 96.1313 58.6645 96.2039C63.6176 97.0384 75.7432 99.6601 81.382 105.988C81.6707 106.314 81.6436 106.818 81.3188 107.108C81.1655 107.253 80.976 107.317 80.791 107.317Z" fill="#BBFF93"/>
<path d="M9.18752 110.156C8.99806 110.156 8.81311 110.088 8.65973 109.952C8.33494 109.657 8.30787 109.158 8.59658 108.832C13.7888 103.003 24.913 100.554 29.4556 99.7738C29.8841 99.7012 30.2946 99.9915 30.3668 100.422C30.439 100.853 30.1503 101.266 29.7217 101.339C25.3415 102.092 14.6323 104.437 9.76945 109.893C9.62058 110.066 9.40405 110.156 9.18752 110.156Z" fill="#BBFF93"/>
<path d="M78.1432 110.156C77.9267 110.156 77.7102 110.066 77.5568 109.893C72.6443 104.378 61.7817 102.042 57.3429 101.293C56.9143 101.221 56.6211 100.813 56.6933 100.377C56.7655 99.9462 57.1715 99.656 57.6045 99.724C62.2103 100.5 73.4878 102.94 78.7342 108.832C79.0229 109.158 78.9958 109.662 78.671 109.952C78.5176 110.088 78.3327 110.156 78.1432 110.156Z" fill="#BBFF93"/>
<path d="M17.6324 119.718C8.09154 117.101 1.70393 113.077 0.873901 108.514C1.54604 113.477 2.93995 120.643 4.53234 126.077C6.65252 131.71 14.1859 136.468 24.5252 139.136C25.8875 139.485 27.0108 138.042 26.3702 136.786C24.2726 132.695 22.5313 127.95 21.381 123.532C20.8938 121.677 19.4729 120.221 17.6324 119.718Z" fill="#8892AA"/>
<path d="M69.6985 119.718C79.2393 117.101 85.6269 113.077 86.457 108.514C85.7848 113.477 84.3909 120.643 82.7985 126.077C80.6783 131.71 73.1449 136.468 62.8057 139.136C61.4433 139.485 60.3201 138.042 60.9606 136.786C63.0583 132.695 64.7995 127.95 65.9498 123.532C66.437 121.677 67.858 120.221 69.6985 119.718Z" fill="#8892AA"/>
<path d="M30.8903 88.561V110.841C30.8903 120.017 43.6655 127.759 43.6655 127.759C43.6655 127.759 56.4362 120.144 56.4362 110.841V88.561H30.8903Z" fill="#FCA274"/>
<path d="M80.791 49.0546C80.791 51.5039 80.6602 53.9124 80.4121 56.2801C77.5296 83.8169 58.7005 105.103 43.6653 105.103C28.6255 105.103 9.792 83.8124 6.91848 56.2665C6.67037 53.9079 6.53955 51.5039 6.53955 49.0591C6.53955 18.1023 23.1627 0 43.6653 0C64.1679 0 80.791 18.1023 80.791 49.0546Z" fill="#FFB786"/>
<path d="M80.7911 49.0546C80.7911 51.5039 80.6603 53.9124 80.4122 56.2801C79.5596 58.4754 78.892 60.1945 78.883 60.2217C78.8198 60.2172 78.7567 60.1854 78.7025 60.1537L78.6664 60.2398C76.3478 59.31 74.6922 56.3345 75.3283 53.2003C76.014 49.8257 76.5012 45.4985 75.8877 40.7269C73.3254 20.8102 61.1998 18.8507 53.4859 21.6947C50.6214 22.7515 47.1434 24.8607 43.6654 24.8607C40.1829 24.8607 36.7049 22.747 33.8494 21.6947C25.9416 18.7782 13.9829 20.9962 11.4477 40.7269C10.8342 45.4985 11.3214 49.8257 12.007 53.2003C12.6476 56.3119 11.0101 59.2964 8.66887 60.2398L8.63278 60.1537C8.57865 60.1854 8.52452 60.2172 8.46136 60.2398C8.42528 60.1582 8.40272 60.0947 8.38468 60.0539C8.38017 60.0312 8.37114 60.0085 8.3531 59.9813C8.19521 59.5595 7.79373 58.5299 6.91408 56.2665C6.66598 53.9079 6.53516 51.5039 6.53516 49.0591C6.53967 18.1023 23.1628 0 43.6654 0C64.168 0 80.7911 18.1023 80.7911 49.0546Z" fill="#475235"/>
<path d="M36.9168 65.016C32.717 67.9915 27.0512 70.9171 19.3554 72.5318L11.1859 74.0785C9.07926 68.5902 7.57709 62.5939 6.91848 56.2665C6.67037 53.9078 6.53955 51.5039 6.53955 49.0591C6.53955 33.4968 10.7393 21.1821 17.5239 12.7909C13.7346 18.9596 13.1437 23.3411 13.1978 26.0808C13.455 39.0441 28.0391 49.6669 27.9895 52.1797L28.1383 56.4615C31.7201 57.0738 33.5155 57.414 36.9935 57.9129C40.9406 58.4618 41.4323 61.8228 36.9168 65.016Z" fill="#A1A6BE"/>
<path d="M36.998 57.9036C30.0646 56.9103 23.1582 55.4679 16.8157 54.2069C14.7451 53.7942 13.455 55.1504 13.879 57.2278C15.097 63.1787 18.575 68.9256 23.0319 71.6198C28.8962 69.9416 33.4208 67.4968 36.9213 65.0203C41.4323 61.8225 40.9406 58.4615 36.998 57.9036Z" fill="#707B95"/>
<path d="M28.1385 65.7235C26.9747 65.7235 26.0319 64.7755 26.0319 63.6053V60.2851C26.0319 59.1148 26.9747 58.1669 28.1385 58.1669C29.3024 58.1669 30.2452 59.1148 30.2452 60.2851V63.6053C30.2452 64.7755 29.3024 65.7235 28.1385 65.7235Z" fill="#2A0826"/>
<path d="M59.1923 65.7235C58.0285 65.7235 57.0857 64.7755 57.0857 63.6053V60.2851C57.0857 59.1148 58.0285 58.1669 59.1923 58.1669C60.3562 58.1669 61.299 59.1148 61.299 60.2851V63.6053C61.2945 64.7755 60.3517 65.7235 59.1923 65.7235Z" fill="#2A0826"/>
<path d="M45.6276 79.304C43.5706 79.304 42.0729 79.0318 40.6835 78.4104C39.5197 77.8888 38.7032 76.9499 38.4416 75.825C38.2025 74.7999 38.4731 73.7249 39.1769 72.8813C40.0159 71.8743 40.3542 71.3573 40.4896 71.0987C41.3557 69.4477 41.7978 67.6923 41.7978 65.8871V60.8161C41.7978 60.5258 42.0323 60.2854 42.3256 60.2854C42.6143 60.2854 42.8533 60.5213 42.8533 60.8161V65.8871C42.8533 67.8692 42.3707 69.7879 41.4233 71.5931C41.1888 72.0376 40.7196 72.6817 39.9888 73.5617C39.4926 74.1604 39.3077 74.877 39.4701 75.5892C39.655 76.3875 40.2505 77.0633 41.1121 77.4488C42.4519 78.0476 43.936 78.288 46.0607 78.2471C46.3449 78.2517 46.593 78.4739 46.5975 78.7688C46.602 79.059 46.3719 79.304 46.0787 79.3085C45.9208 79.304 45.772 79.304 45.6276 79.304Z" fill="#CC6442"/>
<path d="M35.4915 87.7357C35.2705 87.7357 35.0449 87.6405 34.8915 87.459C34.6073 87.1279 34.648 86.6245 34.9773 86.3387C36.2539 85.241 40.0386 84.1298 43.9001 84.8419C47.9374 83.8939 51.8395 85.3045 52.9086 86.3795C53.2153 86.688 53.2153 87.1914 52.9086 87.5044C52.6018 87.8128 52.1011 87.8128 51.7898 87.5044C51.2124 86.9238 47.8021 85.495 44.1076 86.4249C43.9948 86.4521 43.8775 86.4566 43.7647 86.4339C40.3138 85.7536 36.8719 86.7968 36.0013 87.5498C35.8524 87.6722 35.672 87.7357 35.4915 87.7357Z" fill="#CC6442"/>
<path d="M11.2356 61.8685C10.6447 58.1401 8.70493 52.8967 4.85251 52.5475C2.04214 52.2935 -0.366744 55.2871 2.54738 64.0548C4.1939 69.0169 8.01474 74.4327 10.4823 73.8884C12.3002 73.4847 12.1468 67.6154 11.2356 61.8685Z" fill="#8892AA"/>
<path d="M9.49427 63.4509C8.58304 58.3164 5.70952 54.9554 4.30659 55.2321C2.52473 55.5813 2.88562 59.6499 4.04495 63.011C4.72611 64.9795 7.00418 69.3656 8.75446 68.6263C9.72433 68.2135 9.94988 66.0182 9.49427 63.4509Z" fill="#707B95"/>
<path d="M8.91246 66.7394C8.66886 66.7394 8.40722 66.6532 8.14558 66.49C7.63584 66.1679 7.03587 65.4422 6.87348 64.3717C6.70206 63.2196 6.87799 62.2853 7.4148 61.5142C7.496 61.3963 7.65388 61.369 7.77117 61.4507C7.88846 61.5323 7.91552 61.6911 7.83432 61.809C7.37871 62.4667 7.22985 63.2786 7.38322 64.2946C7.51855 65.1927 8.01025 65.796 8.42076 66.0545C8.65533 66.1997 8.88088 66.2586 9.04779 66.2042C9.47634 66.0727 9.544 65.161 9.24627 63.4873C8.55158 59.5819 6.72912 56.7652 5.3307 55.8036C4.95178 55.5406 4.60443 55.4272 4.35632 55.4725C4.06311 55.5315 3.83756 55.7175 3.66614 56.0395C2.86769 57.559 3.58945 61.3736 4.71721 64.0361C4.77134 64.1676 4.71269 64.3173 4.58187 64.3717C4.45106 64.4262 4.30219 64.3672 4.24806 64.2357C3.04813 61.4008 2.33538 57.4728 3.21503 55.7991C3.45863 55.3364 3.81049 55.0552 4.25708 54.969C4.64503 54.8919 5.11869 55.0325 5.61941 55.3773C7.10354 56.3978 9.02524 59.3415 9.747 63.3965C10.1169 65.4739 9.94999 66.4627 9.19665 66.6941C9.10192 66.7258 9.00719 66.7394 8.91246 66.7394Z" fill="#4A536E"/>
<path d="M76.0951 61.8685C76.6861 58.1401 78.6258 52.8967 82.4782 52.5475C85.2886 52.2935 87.6975 55.2871 84.7834 64.0548C83.1368 69.0169 79.316 74.4327 76.8485 73.8884C75.0305 73.4847 75.1839 67.6154 76.0951 61.8685Z" fill="#FFB786"/>
<path d="M77.8364 63.4509C78.7476 58.3164 81.6211 54.9554 83.024 55.2321C84.8059 55.5813 84.445 59.6499 83.2857 63.011C82.6045 64.9795 80.3264 69.3656 78.5762 68.6263C77.6063 68.2135 77.3807 66.0182 77.8364 63.4509Z" fill="#FF9D79"/>
<path d="M78.4184 66.7396C78.3191 66.7396 78.2289 66.726 78.1387 66.6988C77.3854 66.4675 77.2185 65.4832 77.5884 63.4013C78.3101 59.3508 80.2318 56.4026 81.7159 55.382C82.2167 55.0373 82.6903 54.8967 83.0783 54.9738C83.5249 55.06 83.8767 55.3412 84.1203 55.8039C85.0045 57.4776 84.2872 61.4056 83.0873 64.2404C83.0332 64.372 82.8843 64.4309 82.7535 64.3765C82.6227 64.3221 82.564 64.1724 82.6182 64.0409C83.7459 61.3783 84.4677 57.5637 83.6692 56.0443C83.4978 55.7177 83.2723 55.5317 82.979 55.4773C82.7309 55.4274 82.3836 55.5453 82.0047 55.8084C80.6062 56.77 78.7838 59.5867 78.0891 63.492C77.7914 65.1612 77.859 66.0774 78.2876 66.209C78.4545 66.2589 78.6845 66.2044 78.9146 66.0593C79.3296 65.7962 79.8168 65.1975 79.9521 64.2994C80.1055 63.2834 79.9566 62.4715 79.501 61.8138C79.4198 61.6958 79.4469 61.5371 79.5642 61.4555C79.6815 61.3738 79.8394 61.401 79.9206 61.519C80.4574 62.29 80.6333 63.2244 80.4619 64.3765C80.2995 65.4469 79.6995 66.1727 79.1898 66.4947C78.9281 66.658 78.662 66.7396 78.4184 66.7396Z" fill="#CC6442"/>
<path d="M46.0652 91.9226H41.1978C40.4716 91.9226 39.8806 91.3284 39.8806 90.5981C39.8806 89.8679 40.4716 89.2737 41.1978 89.2737H46.0652C46.7915 89.2737 47.3825 89.8679 47.3825 90.5981C47.3779 91.3329 46.7915 91.9226 46.0652 91.9226Z" fill="#E48256"/>
<path d="M43.503 112.229C41.6039 112.229 40.0747 110.737 40.0205 108.827C40.0115 108.537 40.2416 108.292 40.5303 108.283C40.8235 108.269 41.0626 108.505 41.0716 108.795C41.1077 110.124 42.1768 111.168 43.503 111.168C43.7466 111.168 43.9902 111.131 44.2203 111.059C44.5 110.973 44.7932 111.127 44.8789 111.408C44.9646 111.689 44.8112 111.984 44.5315 112.07C44.1977 112.174 43.8504 112.229 43.503 112.229Z" fill="#CC6442"/>
<path d="M43.6654 105.611C39.6236 105.611 35.1847 104.092 30.8361 101.216C30.6015 101.062 30.5338 100.74 30.6872 100.504C30.8451 100.268 31.1609 100.2 31.3954 100.354C35.5772 103.121 39.822 104.582 43.6609 104.582C46.4307 104.582 49.3583 103.842 52.3762 102.386C52.6334 102.264 52.9356 102.373 53.0619 102.627C53.1837 102.885 53.0754 103.189 52.8228 103.316C49.6696 104.84 46.5886 105.611 43.6654 105.611Z" fill="#CC6442"/>
<path d="M41.879 58.3894C41.6128 58.3894 41.3828 58.1853 41.3557 57.9132L40.8324 52.5564C40.8053 52.2661 41.0174 52.0076 41.3061 51.9804C41.5993 51.9486 41.8519 52.1663 41.879 52.4566L42.4022 57.8134C42.4293 58.1037 42.2173 58.3622 41.9286 58.3894C41.9105 58.3849 41.8925 58.3894 41.879 58.3894Z" fill="#E48256"/>
<path d="M45.5691 58.3891C45.551 58.3891 45.533 58.3891 45.5149 58.3846C45.2262 58.3573 45.0142 58.0988 45.0413 57.8085L45.5645 52.4517C45.5916 52.1615 45.8533 51.9483 46.1374 51.9755C46.4262 52.0027 46.6382 52.2612 46.6111 52.5515L46.0878 57.9083C46.0653 58.185 45.8352 58.3891 45.5691 58.3891Z" fill="#E48256"/>
<path d="M50.8198 59.056C49.7777 59.056 48.862 58.2939 48.6951 57.228C48.5101 56.0487 49.3131 54.9375 50.4905 54.7515C52.8317 54.3841 54.7038 53.4905 56.5127 52.6287C59.5621 51.1773 62.7153 49.6714 67.4474 50.8598C68.6022 51.1501 69.3059 52.3248 69.0172 53.486C68.7285 54.6472 67.5602 55.3502 66.4054 55.0645C63.1664 54.2526 61.1455 55.2141 58.3532 56.5477C56.3638 57.4956 54.1128 58.5706 51.1536 59.0378C51.0453 59.0469 50.9325 59.056 50.8198 59.056Z" fill="#3C4A56"/>
<path d="M57.2841 84.2391C57.2209 84.2391 57.1623 84.2074 57.1217 84.1529C57.0585 84.0622 57.0811 83.9397 57.1713 83.8762C61.4568 80.8872 64.2626 77.4127 67.6685 72.4188C67.7316 72.3281 67.8534 72.3054 67.9436 72.3689C68.0338 72.4324 68.0564 72.5549 67.9932 72.6456C64.5649 77.6758 61.7319 81.182 57.3968 84.2074C57.3608 84.2255 57.3247 84.2391 57.2841 84.2391Z" fill="white"/>
<path d="M57.2842 98.685C57.1759 98.685 57.0857 98.5943 57.0857 98.4854V84.0389C57.0857 83.9301 57.1759 83.8394 57.2842 83.8394C57.3924 83.8394 57.4827 83.9301 57.4827 84.0389V98.4854C57.4827 98.5943 57.3924 98.685 57.2842 98.685Z" fill="white"/>
<path d="M29.5909 60.1352C29.5909 60.7385 29.1037 61.2284 28.5038 61.2284C27.9038 61.2284 27.4166 60.7385 27.4166 60.1352C27.4166 59.532 27.9038 59.0421 28.5038 59.0421C29.1037 59.0421 29.5909 59.5274 29.5909 60.1352Z" fill="#4EFF00"/>
<path d="M59.1923 52.3701C59.084 52.3701 58.9983 52.2839 58.9938 52.175C58.9758 51.218 60.3787 49.8255 62.5034 47.7209C66.9874 43.2713 74.4937 35.8235 74.196 25.7676C74.1013 22.5245 73.1133 19.5082 71.2593 16.8094C71.1961 16.7187 71.2187 16.5963 71.3089 16.5328C71.3991 16.4693 71.5209 16.4919 71.5841 16.5827C73.4787 19.3495 74.4892 22.4338 74.5884 25.754C74.8907 35.9868 67.3076 43.5071 62.7786 48.0021C60.8749 49.889 59.3728 51.3813 59.3863 52.1659C59.3908 52.2748 59.3051 52.3655 59.1923 52.3701Z" fill="#CC6442"/>
<path d="M74.6651 74.0239C74.6516 74.0239 74.6425 74.0239 74.629 74.0194L67.7903 72.7267C67.6956 72.6904 62.2598 70.3363 59.0524 67.3019C58.9712 67.2248 58.9712 67.1023 59.0434 67.0207C59.1201 66.939 59.2419 66.939 59.3231 67.0116C62.4763 69.9962 67.8489 72.323 67.9031 72.3457L74.7012 73.6248C74.8094 73.6429 74.8771 73.7472 74.8591 73.8561C74.841 73.9559 74.7598 74.0239 74.6651 74.0239Z" fill="white"/>
<path d="M11.186 74.4458C11.01 74.4458 10.8567 74.3233 10.8251 74.1419C10.789 73.9423 10.9198 73.7473 11.1183 73.711L19.2832 72.1688C25.7746 70.8036 31.6389 68.2953 36.7048 64.7165C38.7934 63.2379 39.9031 61.6413 39.7498 60.335C39.6325 59.3416 38.6807 58.6431 36.9214 58.2666C35.9515 58.058 35.1079 57.8675 34.314 57.6906C32.3427 57.2506 30.6375 56.8651 28.0797 56.4296C27.9083 56.3979 27.782 56.2528 27.773 56.0804L27.6241 52.1932C27.6377 51.5401 26.1355 49.8618 24.4033 47.9205C20.1403 43.1398 13.0084 35.1613 12.828 26.0761C12.7468 21.9939 14.2219 17.4536 17.2127 12.5867C17.321 12.4143 17.5465 12.3599 17.7179 12.4642C17.8893 12.5731 17.9435 12.7999 17.8397 12.9722C14.9256 17.7167 13.4866 22.1209 13.5633 26.058C13.7392 34.8665 20.7538 42.7179 24.9491 47.4125C27.2633 50.0024 28.3775 51.2861 28.3594 52.1751L28.4948 55.7447C30.9082 56.1666 32.5637 56.5385 34.4719 56.9649C35.2658 57.1418 36.1094 57.3323 37.0747 57.5409C39.1769 57.9945 40.3227 58.9062 40.4806 60.2488C40.6655 61.8363 39.4475 63.6824 37.1289 65.3243C31.9818 68.9666 26.0272 71.5112 19.4276 72.8991L11.2536 74.4458C11.2311 74.4413 11.2085 74.4458 11.186 74.4458Z" fill="#FCFCFE"/>
<path d="M24.5252 139.136C24.2185 139.058 23.9207 138.977 23.6185 138.9C23.7268 138.523 23.7042 138.106 23.4967 137.702C21.3991 133.611 19.0939 129.642 17.9436 125.224C17.4609 123.365 16.04 121.913 14.195 121.41C9.28696 120.058 4.97442 117.368 1.83475 114.452C1.44229 112.315 1.10847 110.279 0.873901 108.514C1.70393 113.077 8.09605 117.105 17.6324 119.718C19.4729 120.226 20.8938 121.682 21.381 123.532C22.5358 127.955 24.2771 132.699 26.3702 136.786C27.0153 138.047 25.8875 139.485 24.5252 139.136Z" fill="#A1A6BE"/>
<path d="M62.8057 139.136C63.1124 139.058 63.4102 138.977 63.7124 138.9C63.5996 138.523 63.6267 138.106 63.8342 137.702C65.9363 133.611 68.237 129.642 69.3873 125.224C69.8699 123.365 71.2909 121.913 73.1359 121.41C78.0484 120.063 82.3565 117.368 85.4961 114.452C85.8931 112.315 86.2224 110.279 86.4615 108.514C85.6315 113.077 79.2393 117.105 69.703 119.718C67.8625 120.226 66.4416 121.682 65.9544 123.532C64.7996 127.955 63.0583 132.695 60.9652 136.786C60.3156 138.047 61.4434 139.485 62.8057 139.136Z" fill="#A1A6BE"/>
<path d="M58.272 38.7086C58.1908 38.7086 58.1141 38.6587 58.087 38.577L55.9488 32.7803C55.9263 32.7213 55.9353 32.6533 55.9669 32.6034L59.7065 26.8792C59.7426 26.8248 59.8012 26.7885 59.8689 26.7885L65.7964 26.7159C65.8866 26.7159 65.9543 26.7658 65.9858 26.8475L68.1602 32.7304C68.1827 32.7894 68.1737 32.8619 68.1376 32.9118L64.5017 38.128C64.4701 38.1779 64.416 38.2051 64.3574 38.2096C64.3528 38.2096 58.2855 38.7086 58.272 38.7086ZM56.3503 32.7349L58.4028 38.2958L64.231 37.8196L67.7542 32.7667L65.6656 27.1106L59.9817 27.1831L56.3503 32.7349Z" fill="#FCFCFE"/>
<path d="M54.8708 42.8134C54.8257 42.8134 54.7805 42.7998 54.7445 42.768C54.6587 42.7 54.6497 42.573 54.7174 42.4868L58.1142 38.3819C58.1864 38.2958 58.3082 38.2867 58.3939 38.3547C58.4796 38.4228 58.4886 38.5498 58.4209 38.6359L55.0241 42.7408C54.9835 42.7862 54.9294 42.8134 54.8708 42.8134Z" fill="#FCFCFE"/>
<path d="M65.801 27.1146C65.7694 27.1146 65.7333 27.1055 65.7017 27.0874C65.607 27.0329 65.5754 26.9105 65.6295 26.8152L66.9468 24.4974C67.0009 24.4022 67.1227 24.3704 67.2174 24.4249C67.3122 24.4793 67.3437 24.6018 67.2896 24.697L65.9724 27.0148C65.9363 27.0783 65.8686 27.1146 65.801 27.1146Z" fill="#FCFCFE"/>
<path d="M45.2082 96.6486L45.7811 104.301C45.8713 105.498 44.9781 106.541 43.7917 106.627C42.6008 106.718 41.5633 105.82 41.4776 104.627C41.4686 104.523 41.4686 104.405 41.4776 104.301L42.0505 96.6486C42.1182 95.7732 42.876 95.1155 43.7466 95.179C44.5406 95.2425 45.1541 95.8776 45.2082 96.6486Z" fill="#3C4A56"/>
<path d="M28.5039 44.9405C28.4542 44.9405 28.4046 44.9223 28.364 44.8815C22.6395 39.2163 17.8353 29.4507 17.4293 22.6425C17.1135 17.381 18.5571 13.8431 21.3223 9.15761C21.3764 9.06236 21.4982 9.0306 21.593 9.08957C21.6877 9.144 21.7193 9.26647 21.6606 9.36172C18.9315 13.9792 17.5105 17.4581 17.8218 22.6198C18.2232 29.3373 22.9779 38.994 28.6437 44.6003C28.7204 44.6774 28.7204 44.8044 28.6482 44.8815C28.6076 44.9223 28.558 44.9405 28.5039 44.9405Z" fill="#FCFCFE"/>
</svg>
