<svg width="85" height="143" viewBox="0 0 85 143" fill="none" xmlns="http://www.w3.org/2000/svg">
<path d="M77.0832 120.137C77.0832 128.995 61.4772 142.002 42.2304 142.002C22.9835 142.002 7.37756 128.995 7.37756 120.137C7.37756 111.28 22.9835 104.102 42.2348 104.102C61.4772 104.102 77.0832 111.284 77.0832 120.137Z" fill="#262447"/>
<path d="M42.2304 93.2402V104.102C25.2675 104.102 11.1339 109.679 8.02066 117.065C3.52825 114.844 0.694436 112.166 0.162264 109.266C0.144525 109.173 0.131221 109.08 0.122351 108.987C0.091308 108.748 0.0780037 108.513 0.0780037 108.273C0.0735689 99.9744 18.9479 93.2402 42.2304 93.2402Z" fill="#BE22FF"/>
<path d="M42.2303 93.2402V104.102C59.1933 104.102 73.3269 109.679 76.4401 117.065C80.9325 114.844 83.7663 112.166 84.2985 109.271C84.3162 109.178 84.3295 109.085 84.3384 108.992C84.3695 108.752 84.3828 108.517 84.3828 108.278C84.3872 99.9744 65.5128 93.2402 42.2303 93.2402Z" fill="#BE22FF"/>
<path d="M16.9212 103.543C16.6019 103.543 16.3003 103.344 16.1895 103.024C16.0476 102.621 16.256 102.178 16.664 102.036C19.8304 100.914 23.3782 100.014 27.2054 99.3582C27.6267 99.2828 28.0303 99.571 28.1012 99.9921C28.1722 100.413 27.8884 100.817 27.4671 100.888C23.7241 101.53 20.265 102.408 17.1829 103.499C17.0942 103.53 17.0055 103.543 16.9212 103.543Z" fill="#F9B3FF"/>
<path d="M5.73226 110.171C5.546 110.171 5.36418 110.105 5.21339 109.972C4.89409 109.683 4.86748 109.196 5.15131 108.877C6.94739 106.873 9.60824 105.055 13.0629 103.481C13.4532 103.304 13.9144 103.477 14.0918 103.867C14.2692 104.257 14.0962 104.718 13.706 104.896C10.4508 106.381 7.96295 108.065 6.30878 109.914C6.158 110.082 5.94513 110.171 5.73226 110.171Z" fill="#F9B3FF"/>
<path d="M67.5395 103.543C67.4553 103.543 67.3666 103.53 67.2823 103.499C64.1203 102.382 60.5681 101.486 56.7143 100.839C56.293 100.768 56.0047 100.369 56.0757 99.948C56.1466 99.5268 56.5458 99.2386 56.9715 99.3096C60.9096 99.9701 64.5549 100.888 67.8012 102.036C68.2048 102.178 68.4176 102.621 68.2757 103.025C68.1604 103.348 67.8588 103.543 67.5395 103.543Z" fill="#F9B3FF"/>
<path d="M78.7285 110.171C78.5157 110.171 78.3028 110.082 78.152 109.914C76.4979 108.07 74.01 106.381 70.7548 104.896C70.3646 104.718 70.1916 104.257 70.369 103.867C70.5464 103.477 71.0076 103.308 71.3979 103.481C74.8481 105.055 77.5134 106.868 79.3095 108.877C79.5933 109.196 79.5667 109.688 79.2474 109.972C79.0966 110.105 78.9104 110.171 78.7285 110.171Z" fill="#F9B3FF"/>
<path d="M16.6374 120.217C7.25785 117.659 0.978228 113.727 0.162231 109.267C0.823011 114.117 2.19335 121.121 3.75882 126.432C5.84316 131.939 13.2492 136.589 23.4137 139.196C24.753 139.537 25.8572 138.127 25.2231 136.899C23.1609 132.901 21.4491 128.263 20.3182 123.945C19.8437 122.132 18.4468 120.714 16.6374 120.217Z" fill="#8A82A2"/>
<path d="M67.8234 120.217C77.2029 117.659 83.4826 113.727 84.2986 109.267C83.6378 114.117 82.2674 121.121 80.702 126.432C78.6176 131.939 71.2116 136.589 61.0471 139.196C59.7078 139.537 58.6035 138.127 59.2333 136.899C61.2954 132.901 63.0073 128.263 64.1381 123.945C64.6171 122.132 66.014 120.714 67.8234 120.217Z" fill="#8A82A2"/>
<path d="M29.6711 89.7693V111.545C29.6711 120.514 42.2304 128.082 42.2304 128.082C42.2304 128.082 54.7852 120.638 54.7852 111.545V89.7693H29.6711Z" fill="#8A82A2"/>
<path d="M78.7286 51.1556C78.7286 53.5496 78.6 55.9036 78.356 58.2178C75.5222 85.1322 57.016 105.937 42.2305 105.937C37.8755 105.937 33.1969 104.133 28.6911 100.901C24.4338 97.8379 20.3228 93.5066 16.7927 88.2044C11.3823 80.0827 7.31559 69.7044 6.10934 58.2045C5.86542 55.8992 5.73682 53.5496 5.73682 51.16C5.73682 20.9074 22.0745 3.21423 42.2349 3.21423C62.3865 3.2098 78.7286 20.903 78.7286 51.1556Z" fill="#FBB87A"/>
<path d="M78.7286 51.1552C78.7286 53.5491 78.6 55.9032 78.356 58.2174C77.5179 60.3631 76.8615 62.0433 76.8482 62.0699C76.7861 62.0654 76.7241 62.0344 76.6708 62.0034L76.6354 62.0876C74.3559 61.1788 72.7283 58.2706 73.3536 55.2072C74.0233 51.9088 74.5067 47.6795 73.9035 43.0157C72.9678 35.7761 69.8857 25.1585 63.1626 23.3054C60.4706 22.565 57.1002 23.1857 51.8761 25.1008C46.2395 27.1667 38.1771 27.1534 32.5716 25.1008C27.3474 23.1857 23.977 22.565 21.2851 23.3054C14.5753 25.154 11.4931 35.7673 10.553 43.0112C9.94984 47.675 10.4288 51.9044 11.1029 55.2027C11.7326 58.244 10.1228 61.161 7.82115 62.0832L7.78568 61.9989C7.73246 62.03 7.67924 62.061 7.61715 62.0832C7.58168 62.0034 7.5595 61.9413 7.54176 61.9014C7.53733 61.8792 7.52846 61.8571 7.51072 61.8305C7.3555 61.4182 6.96081 60.4118 6.09603 58.1996C5.85212 55.8943 5.72351 53.5447 5.72351 51.1552C5.72351 20.9025 22.0656 3.20935 42.2216 3.20935C62.3776 3.20935 78.7286 20.9025 78.7286 51.1552Z" fill="#262447"/>
<path d="M34.1901 60.257C34.0216 60.257 33.8531 60.2348 33.6846 60.1949L19.245 56.5729C18.1363 56.2936 17.4622 55.172 17.7416 54.0637C18.021 52.9554 19.143 52.2815 20.2517 52.5608L34.6913 56.1828C35.8 56.4621 36.474 57.5837 36.1947 58.692C35.9596 59.6319 35.117 60.257 34.1901 60.257Z" fill="#262447"/>
<path d="M50.2707 60.257C49.3438 60.257 48.5012 59.6319 48.2661 58.692C47.9868 57.5837 48.6608 56.4576 49.7695 56.1828L64.2091 52.5608C65.3178 52.2815 66.4398 52.9554 66.7192 54.0637C66.9986 55.172 66.3245 56.298 65.2158 56.5729L50.7762 60.1949C50.6077 60.2392 50.4392 60.257 50.2707 60.257Z" fill="#262447"/>
<path d="M30.0748 64.8629C29.9506 64.8629 29.822 64.8451 29.6934 64.8141L25.0369 63.6393C24.2076 63.4309 23.702 62.5842 23.9105 61.7551C24.1189 60.9217 24.9615 60.4207 25.7952 60.6291L30.4517 61.8039C31.281 62.0123 31.7866 62.859 31.5782 63.688C31.4008 64.3929 30.7666 64.8629 30.0748 64.8629Z" fill="#262447"/>
<path d="M54.386 64.8633C53.6942 64.8633 53.06 64.3934 52.8826 63.6929C52.6742 62.8639 53.1753 62.0171 54.0091 61.8088L58.6656 60.634C59.4993 60.4256 60.3419 60.9266 60.5503 61.76C60.7588 62.589 60.2577 63.4358 59.4239 63.6442L54.7674 64.819C54.6432 64.8456 54.5146 64.8633 54.386 64.8633Z" fill="#262447"/>
<path d="M44.1595 81.754C42.1373 81.754 40.6649 81.488 39.2946 80.8806C38.1504 80.3752 37.3477 79.4531 37.0905 78.3537C36.8599 77.3517 37.1215 76.3011 37.8134 75.4765C38.6382 74.4923 38.9708 73.9869 39.1039 73.7342C39.9554 72.1205 40.39 70.4048 40.39 68.6404V63.684C40.39 63.4002 40.6206 63.1653 40.9088 63.1653C41.1927 63.1653 41.4277 63.3958 41.4277 63.684V68.6404C41.4277 70.5777 40.9532 72.453 40.0219 74.2174C39.7913 74.6519 39.3301 75.2814 38.6116 76.1415C38.1238 76.7267 37.942 77.4271 38.1016 78.1231C38.2835 78.9034 38.8733 79.5639 39.7159 79.9408C41.033 80.526 42.4876 80.7388 44.5808 80.721C44.8735 80.7166 45.1041 80.9471 45.1086 81.2309C45.113 81.5146 44.8868 81.754 44.5986 81.7584C44.4478 81.754 44.3014 81.754 44.1595 81.754Z" fill="#BA7045"/>
<path d="M45.3392 87.5523C43.4766 87.5523 41.6096 87.4193 39.7736 87.2908C37.942 87.1622 36.044 87.0248 34.1947 87.0248C33.7645 87.0248 33.4186 86.679 33.4186 86.249C33.4186 85.8189 33.7645 85.4731 34.1947 85.4731C36.1016 85.4731 38.0263 85.6106 39.8845 85.7436C43.6318 86.0096 47.1663 86.2623 50.5988 85.4953C51.0157 85.4022 51.4326 85.6638 51.5257 86.0849C51.6188 86.5017 51.3572 86.9184 50.9359 87.0115C49.0999 87.4149 47.224 87.5523 45.3392 87.5523Z" fill="#BA7045"/>
<path d="M10.3489 63.6792C9.76799 60.0351 7.86104 54.9102 4.07376 54.5689C1.3109 54.3206 -1.05726 57.2466 1.80759 65.8161C3.42628 70.6661 7.18253 75.9594 9.60834 75.4274C11.3956 75.0328 11.2448 69.2962 10.3489 63.6792Z" fill="#FBB87A"/>
<path d="M8.63708 65.2227C7.73683 60.2042 4.91188 56.9192 3.53267 57.1896C1.78094 57.531 2.13572 61.5076 3.27546 64.7927C3.94511 66.7167 6.18466 71.0037 7.90535 70.281C8.86326 69.882 9.085 67.7363 8.63708 65.2227Z" fill="#F0A070"/>
<path d="M8.06501 68.4404C7.82553 68.4404 7.56831 68.3562 7.3111 68.1966C6.80997 67.8819 6.22015 67.1725 6.06049 66.1263C5.89197 65.0002 6.06493 64.087 6.59267 63.3333C6.67249 63.2181 6.82771 63.1915 6.94301 63.2713C7.05832 63.3511 7.08492 63.5062 7.0051 63.6215C6.55719 64.2643 6.41084 65.0579 6.56162 66.0509C6.69467 66.9287 7.17805 67.5183 7.58162 67.771C7.81223 67.9173 8.03396 67.9705 8.19805 67.9173C8.61935 67.7888 8.68587 66.8977 8.39318 65.2618C7.71023 61.4447 5.91858 58.6917 4.54381 57.7518C4.17129 57.4947 3.82981 57.3839 3.5859 57.4282C3.29764 57.4858 3.0759 57.6676 2.90738 57.9824C2.12243 59.4675 2.83199 63.1959 3.94068 65.7982C3.99389 65.9268 3.93624 66.0731 3.80763 66.1263C3.67903 66.1795 3.53268 66.1218 3.47946 65.9933C2.29982 63.2225 1.59912 59.3833 2.4639 57.7474C2.70338 57.2952 3.04929 57.0203 3.48833 56.9361C3.86972 56.8607 4.33537 56.9982 4.82763 57.3351C6.28667 58.3326 8.17588 61.2098 8.88544 65.1731C9.24909 67.2036 9.085 68.17 8.3444 68.3961C8.25127 68.4271 8.16257 68.4404 8.06501 68.4404Z" fill="#BA7045"/>
<path d="M74.1119 63.6792C74.6929 60.0351 76.5998 54.9102 80.3871 54.5689C83.15 54.3206 85.5182 57.2466 82.6533 65.8161C81.0346 70.6661 77.2784 75.9594 74.8525 75.4274C73.0653 75.0328 73.2161 69.2962 74.1119 63.6792Z" fill="#FBB87A"/>
<path d="M75.8237 65.2227C76.7196 60.2042 79.5445 56.9192 80.9237 57.1896C82.6755 57.531 82.3207 61.5076 81.1809 64.7927C80.5113 66.7167 78.2717 71.0037 76.551 70.281C75.5976 69.882 75.3758 67.7363 75.8237 65.2227Z" fill="#F0A070"/>
<path d="M76.3959 68.4403C76.2983 68.4403 76.2096 68.427 76.121 68.4004C75.3803 68.1743 75.2163 67.2123 75.5799 65.1774C76.2895 61.2185 78.1787 58.3413 79.6377 57.3394C80.13 57.0025 80.5912 56.8606 80.977 56.9404C81.4161 57.0246 81.762 57.2995 82.0015 57.7517C82.8707 59.3876 82.1655 63.2312 80.9859 65.9976C80.9327 66.1261 80.7863 66.1838 80.6577 66.1306C80.5291 66.0774 80.4715 65.9311 80.5247 65.8025C81.6334 63.2002 82.3429 59.4718 81.558 57.9867C81.3895 57.6675 81.1677 57.4857 80.8795 57.4325C80.6311 57.3837 80.2941 57.499 79.9215 57.7561C78.5468 58.696 76.7551 61.449 76.0722 65.2661C75.7795 66.8975 75.846 67.793 76.2673 67.9216C76.4314 67.9704 76.6531 67.9172 76.8837 67.7753C77.2917 67.5182 77.7707 66.933 77.9037 66.0552C78.0545 65.0622 77.9082 64.2686 77.4603 63.6258C77.3804 63.5149 77.407 63.3553 77.5223 63.2755C77.6376 63.1957 77.7929 63.2223 77.8727 63.3376C78.4004 64.0913 78.5734 65.0045 78.4049 66.1306C78.2452 67.1768 77.6554 67.8861 77.1543 68.2009C76.897 68.3561 76.6354 68.4403 76.3959 68.4403Z" fill="#BA7045"/>
<path d="M62.7634 88.8292C62.5638 88.8292 62.3997 88.6652 62.3997 88.4657C62.3997 81.5321 61.8232 77.09 58.7677 73.4901C58.6391 73.3394 58.6568 73.1089 58.812 72.9803C58.9628 72.8517 59.1934 72.8695 59.322 73.0202C62.5195 76.7929 63.1226 81.3592 63.1226 88.4657C63.1226 88.6696 62.9629 88.8292 62.7634 88.8292Z" fill="#FCFCFD"/>
<path d="M57.4683 73.2596C57.4683 74.133 58.1734 74.8379 59.047 74.8379C59.9207 74.8379 60.6258 74.133 60.6258 73.2596C60.6258 72.3863 59.9207 71.6814 59.047 71.6814C58.1734 71.6814 57.4683 72.3863 57.4683 73.2596Z" fill="#FCFCFD"/>
<path d="M27.9283 41.8059C28.6645 42.2759 28.8773 43.2512 28.4073 43.9827C27.9372 44.7186 26.9615 44.9314 26.2298 44.4615C25.4936 43.9915 25.2807 43.0162 25.7508 42.2847C26.2209 41.5532 27.1966 41.336 27.9283 41.8059Z" fill="#FCFCFD"/>
<path d="M27.0768 43.4993C27.028 43.4993 26.9837 43.4904 26.9349 43.4727C20.163 40.6088 16.7482 38.339 13.7148 35.812C13.5596 35.6835 13.5419 35.4574 13.6705 35.3022C13.7991 35.147 14.0253 35.1293 14.1805 35.2579C17.1695 37.7449 20.5266 39.9793 27.2231 42.8033C27.4094 42.8831 27.4936 43.0915 27.4138 43.2777C27.3517 43.4151 27.2187 43.4993 27.0768 43.4993Z" fill="#FCFCFD"/>
<path d="M27.4094 35.5503C28.1455 36.0202 28.3584 36.9956 27.8883 37.727C27.4182 38.463 26.4426 38.6758 25.7109 38.2058C24.9747 37.7359 24.7618 36.7606 25.2319 36.0291C25.6976 35.2932 26.6732 35.0804 27.4094 35.5503Z" fill="#FCFCFD"/>
<path d="M26.558 37.2392C26.5181 37.2392 26.4782 37.2303 26.4383 37.217C21.3117 35.3905 14.3314 31.2986 10.2869 26.2802C10.1627 26.125 10.1849 25.8945 10.3401 25.7703C10.4953 25.6462 10.7259 25.6684 10.8501 25.8235C14.8059 30.7356 21.6487 34.7433 26.6822 36.5388C26.8684 36.6053 26.9704 36.8136 26.8995 36.9998C26.8463 37.1461 26.7088 37.2392 26.558 37.2392Z" fill="#FCFCFD"/>
<path d="M44.5897 92.0214H39.8046C39.0906 92.0214 38.5096 91.4406 38.5096 90.7269C38.5096 90.0131 39.0906 89.4324 39.8046 89.4324H44.5897C45.3037 89.4324 45.8847 90.0131 45.8847 90.7269C45.8802 91.4406 45.3037 92.0214 44.5897 92.0214Z" fill="#D58E5A"/>
<path d="M61.3088 11.6196C61.1669 7.00456 55.0114 0.00443327 42.2304 0C29.3608 0.00443327 23.2896 7.0888 23.1521 11.6196C23.0678 15.0554 26.3762 18.6286 28.7931 21.4881C32.709 25.9258 36.5406 26.6262 42.3413 26.6085C48.2262 26.5996 51.8805 25.7839 55.6678 21.4881C57.996 18.735 61.3975 15.0155 61.3088 11.6196Z" fill="#262447"/>
<path d="M42.2304 106.447C38.2525 106.447 33.8886 104.962 29.6091 102.147C29.3696 101.992 29.3031 101.668 29.4628 101.429C29.618 101.189 29.9417 101.123 30.1812 101.283C34.2922 103.982 38.4609 105.41 42.2349 105.41C44.9534 105.41 47.8315 104.687 50.794 103.269C51.0512 103.145 51.3616 103.255 51.4858 103.512C51.61 103.77 51.4991 104.08 51.2419 104.204C48.1375 105.689 45.1042 106.447 42.2304 106.447Z" fill="#5F5A77"/>
<path d="M34.1946 121.161C34.0527 121.161 33.9374 121.045 33.9374 120.904V104.532C33.9374 104.39 34.0527 104.274 34.1946 104.274C34.3365 104.274 34.4518 104.39 34.4518 104.532V120.904C34.4518 121.045 34.3365 121.161 34.1946 121.161Z" fill="#5F5A77"/>
<path d="M50.2307 121.161C50.0888 121.161 49.9735 121.045 49.9735 120.904V104.532C49.9735 104.39 50.0888 104.274 50.2307 104.274C50.3726 104.274 50.4879 104.39 50.4879 104.532V120.904C50.4924 121.045 50.3771 121.161 50.2307 121.161Z" fill="#5F5A77"/>
<path d="M28.1368 49.5241C28.1146 49.5241 28.0969 49.5197 28.0747 49.5152C19.3116 46.5361 11.3069 41.2782 7.17812 35.7943C7.11603 35.71 7.12934 35.5859 7.21803 35.5238C7.30229 35.4618 7.42646 35.4751 7.48855 35.5637C11.5552 40.9679 19.4491 46.1548 28.1013 49.1162L32.7711 45.7602V36.3573L28.8109 31.1615C22.5712 29.366 16.4069 25.5445 12.7171 21.1778C12.6462 21.098 12.6595 20.9738 12.7393 20.9029C12.8191 20.832 12.9433 20.8453 13.0143 20.9251C16.6729 25.2475 22.7885 29.0335 28.9794 30.8024C29.0193 30.8157 29.0548 30.8379 29.0814 30.8689L33.1259 36.1667C33.1525 36.2021 33.1658 36.242 33.1658 36.2863V45.8533C33.1658 45.9154 33.1348 45.973 33.086 46.0129L28.2521 49.4842C28.2166 49.5108 28.1767 49.5241 28.1368 49.5241Z" fill="#BA7045"/>
<path d="M28.6956 100.799L28.6912 100.897C24.4338 97.8334 20.3228 93.5021 16.7927 88.2C17.6752 88.2753 18.7085 88.2975 19.8039 88.231C21.569 88.1246 23.2586 88.927 24.2919 90.359C24.7753 91.0284 25.3163 91.72 25.8796 92.3938C27.8397 94.7435 28.8686 97.7403 28.6956 100.799Z" fill="#B2AFC6"/>
<path d="M28.6911 101.087C28.5714 101.083 28.4915 100.99 28.496 100.884L28.5004 100.786C28.6689 97.798 27.6844 94.8587 25.7243 92.5135C25.1389 91.813 24.6023 91.1259 24.1277 90.4698C23.1299 89.0822 21.5112 88.3196 19.8083 88.4216C18.8016 88.4837 17.7506 88.4704 16.7705 88.3861C16.664 88.3773 16.5842 88.2842 16.5931 88.1778C16.6019 88.0714 16.6995 87.996 16.8015 88.0004C17.7639 88.0802 18.7927 88.0935 19.7817 88.0315C21.6177 87.9162 23.3605 88.7452 24.4382 90.2392C24.9083 90.8865 25.436 91.5692 26.017 92.2608C28.0392 94.6814 29.0548 97.7137 28.8818 100.804L28.8774 100.901C28.8774 101.008 28.7931 101.087 28.6911 101.087Z" fill="#BA7045"/>
<path d="M55.7608 100.799L55.7653 100.897C60.0226 97.8334 64.1337 93.5021 67.6637 88.2C66.7812 88.2753 65.7479 88.2975 64.6525 88.231C62.8875 88.1246 61.1979 88.927 60.1646 90.359C59.6812 91.0284 59.1401 91.72 58.5769 92.3938C56.6167 94.7435 55.5879 97.7403 55.7608 100.799Z" fill="#B2AFC6"/>
<path d="M55.7653 101.087C55.6633 101.087 55.579 101.007 55.5701 100.905L55.5657 100.808C55.3927 97.7223 56.4083 94.6899 58.4306 92.265C59.0115 91.5689 59.5437 90.8906 60.0093 90.2434C61.087 88.7494 62.8343 87.9204 64.6658 88.0356C65.6548 88.0932 66.6881 88.0844 67.646 88.0046C67.7524 88.0001 67.8456 88.0755 67.8544 88.1819C67.8633 88.2883 67.7835 88.3814 67.677 88.3903C66.697 88.4745 65.6503 88.4834 64.6392 88.4257C62.9363 88.3238 61.3176 89.0863 60.3198 90.4739C59.8453 91.13 59.3086 91.8172 58.7233 92.5177C56.7631 94.8629 55.7786 97.8021 55.9471 100.79L55.9515 100.888C55.9648 100.99 55.8806 101.083 55.7653 101.087Z" fill="white"/>
<path d="M22.3583 88.8117C22.2563 88.8117 22.1721 88.7319 22.1632 88.6299C22.039 86.7414 22.039 84.108 22.039 81.5678C22.039 80.1003 22.039 78.7127 22.0168 77.4581C22.0168 77.4404 22.0168 77.4182 22.0257 77.4005C23.2364 73.2066 24.8241 69.6201 26.66 65.4661L26.8995 64.9297C26.9439 64.8322 27.0592 64.7878 27.1567 64.8322C27.2543 64.8765 27.2986 64.9918 27.2543 65.0893L27.0148 65.6301C25.1877 69.762 23.6045 73.3307 22.4027 77.4847C22.4248 78.7349 22.4248 80.1136 22.4248 81.5722C22.4248 84.108 22.4248 86.7325 22.549 88.6122C22.5623 88.7098 22.4781 88.8028 22.3583 88.8117Z" fill="#BA7045"/>
<path d="M27.8396 60.8424C27.742 60.8424 27.6578 60.767 27.6444 60.6651C27.2453 56.5643 27.3518 52.632 27.9416 49.2937C27.9593 49.1874 28.0613 49.1164 28.1677 49.1386C28.2742 49.1563 28.3451 49.2583 28.323 49.3647C27.7376 52.6675 27.6356 56.5599 28.0303 60.6296C28.0436 60.736 27.9638 60.8291 27.8396 60.8424Z" fill="#BA7045"/>
<path d="M27.742 63.3867C28.3348 63.3867 28.8152 62.9063 28.8152 62.3138C28.8152 61.7213 28.3348 61.241 27.742 61.241C27.1493 61.241 26.6688 61.7213 26.6688 62.3138C26.6688 62.9063 27.1493 63.3867 27.742 63.3867Z" fill="#FCFCFD"/>
<path d="M43.3348 117.007H40.7271C40.4433 117.007 40.2083 116.777 40.2083 116.488C40.2083 116.205 40.4389 115.97 40.7271 115.97H43.3348C43.6186 115.97 43.8536 116.2 43.8536 116.488C43.8536 116.777 43.623 117.007 43.3348 117.007Z" fill="#5F5A77"/>
<path d="M43.8535 114.941H40.2126C39.9288 114.941 39.6937 114.711 39.6937 114.423C39.6937 114.135 39.9243 113.904 40.2126 113.904H43.8535C44.1374 113.904 44.3724 114.135 44.3724 114.423C44.3724 114.711 44.1374 114.941 43.8535 114.941Z" fill="#5F5A77"/>
<path d="M44.3679 112.871H39.6937C39.4098 112.871 39.1748 112.64 39.1748 112.352C39.1748 112.064 39.4054 111.833 39.6937 111.833H44.3679C44.6517 111.833 44.8868 112.064 44.8868 112.352C44.8868 112.64 44.6562 112.871 44.3679 112.871Z" fill="#5F5A77"/>
<path d="M18.2161 88.3903C18.1186 88.3903 18.0343 88.315 18.0254 88.2175C17.6485 84.7063 17.8658 80.1356 18.0254 76.8018C18.0254 76.7796 18.0299 76.7574 18.0387 76.7353C19.8215 72.4483 22.7174 67.3412 24.6598 64.5083C24.7219 64.4197 24.8417 64.3975 24.9304 64.4596C25.0191 64.5216 25.0412 64.6413 24.9791 64.73C23.0545 67.5407 20.1852 72.6035 18.4113 76.855C18.256 80.1755 18.0432 84.7063 18.4113 88.1775C18.4201 88.2839 18.3447 88.377 18.2161 88.3903Z" fill="#BA7045"/>
<path d="M14.9388 74.4917C14.9122 74.4917 14.8856 74.4873 14.859 74.474C13.1117 73.7026 10.8323 71.783 9.79895 70.4796C9.73243 70.3954 9.74574 70.2757 9.83 70.2048C9.91426 70.1383 10.0384 70.1516 10.1005 70.2358C11.0717 71.4682 13.1827 73.2593 14.859 74.0484C17.0232 70.586 20.336 66.0641 22.948 63.6214C23.0279 63.546 23.1476 63.5504 23.223 63.6302C23.2984 63.71 23.2939 63.8297 23.2141 63.9051C20.5932 66.3567 17.2494 70.9407 15.1029 74.3986C15.0675 74.4607 15.0054 74.4917 14.9388 74.4917Z" fill="#BA7045"/>
<path d="M23.4137 139.2C23.1121 139.121 22.8194 139.045 22.5223 138.97C22.6287 138.602 22.6066 138.194 22.4026 137.8C20.3404 133.801 18.0742 129.922 16.9434 125.604C16.4689 123.786 15.0719 122.367 13.2581 121.875C8.42863 120.554 4.19343 117.925 1.10684 115.075C0.716577 112.987 0.392839 110.996 0.162231 109.271C0.978228 113.731 7.26229 117.668 16.6374 120.222C18.4468 120.718 19.8437 122.141 20.3227 123.95C21.458 128.272 23.1698 132.91 25.2275 136.904C25.8617 138.136 24.753 139.542 23.4137 139.2Z" fill="#B2AFC6"/>
<path d="M61.047 139.2C61.3486 139.121 61.6413 139.045 61.9384 138.97C61.832 138.602 61.8541 138.194 62.0581 137.8C64.1247 133.801 66.3865 129.922 67.5173 125.604C67.9918 123.786 69.3888 122.367 71.2026 121.875C76.0276 120.559 80.2673 117.925 83.3539 115.075C83.7441 112.987 84.0679 110.996 84.3029 109.271C83.4869 113.731 77.2028 117.668 67.8278 120.222C66.0184 120.718 64.6214 122.141 64.1425 123.95C63.0072 128.272 61.2954 132.905 59.2376 136.904C58.599 138.136 59.7077 139.542 61.047 139.2Z" fill="#B2AFC6"/>
<path d="M40.8202 25.9879C40.5763 25.9879 40.3634 25.815 40.3146 25.5712C38.5806 16.7845 37.9464 10.6089 37.9021 1.95961C37.9021 1.67588 38.1327 1.44092 38.4165 1.44092C38.7048 1.44092 38.9354 1.67145 38.9354 1.95518C38.9797 10.5336 39.6095 16.6603 41.3302 25.3761C41.3834 25.6554 41.2016 25.9303 40.9222 25.9835C40.8867 25.9879 40.8556 25.9879 40.8202 25.9879Z" fill="#60608C"/>
<path d="M37.667 25.5537C37.4719 25.5537 37.2857 25.4428 37.197 25.2566C33.6048 17.5871 31.4584 11.9302 30.3896 3.99026C30.3497 3.70653 30.5493 3.44497 30.8331 3.4095C31.1169 3.3696 31.3786 3.5691 31.414 3.85283C32.4651 11.6598 34.5849 17.2457 38.1327 24.8178C38.2524 25.0749 38.1416 25.3852 37.8844 25.5049C37.8134 25.5359 37.738 25.5537 37.667 25.5537Z" fill="#60608C"/>
<path d="M34.2833 24.9809C34.137 24.9809 33.9862 24.9188 33.8842 24.7947C29.2986 19.2797 26.3451 14.8154 24.8062 8.32508C24.7397 8.04578 24.9127 7.76648 25.1921 7.70442C25.4714 7.63792 25.7508 7.81082 25.8129 8.09011C27.303 14.3809 30.1945 18.7388 34.6824 24.1385C34.8643 24.3602 34.8332 24.6838 34.6159 24.8656C34.5184 24.9454 34.3986 24.9809 34.2833 24.9809Z" fill="#60608C"/>
<path d="M43.4189 25.9876C43.3834 25.9876 43.3524 25.9832 43.3169 25.9787C43.0375 25.9255 42.8557 25.6507 42.9089 25.3714C44.6296 16.6556 45.2549 10.5288 45.3037 1.95042C45.3037 1.66669 45.5343 1.43616 45.8225 1.43616C46.1108 1.43616 46.3414 1.67112 46.3414 1.95485C46.2971 10.6042 45.6629 16.7841 43.9289 25.5664C43.8801 25.8191 43.6628 25.9876 43.4189 25.9876Z" fill="#60608C"/>
<path d="M46.5765 25.5537C46.5011 25.5537 46.4301 25.5359 46.3592 25.5049C46.102 25.3852 45.9911 25.0749 46.1108 24.8178C49.6587 17.2457 51.7829 11.6598 52.8295 3.85283C52.8694 3.5691 53.1266 3.3696 53.4105 3.4095C53.6943 3.4494 53.8938 3.70653 53.8539 3.99026C52.7852 11.9302 50.6387 17.5915 47.0466 25.2566C46.9579 25.4428 46.7716 25.5537 46.5765 25.5537Z" fill="#60608C"/>
<path d="M49.9557 24.9813C49.8404 24.9813 49.7207 24.9414 49.6231 24.8616C49.4014 24.6798 49.3748 24.3517 49.5566 24.1345C54.0446 18.7348 56.9361 14.3769 58.4261 8.08608C58.4927 7.80679 58.772 7.63389 59.047 7.70039C59.3264 7.76689 59.4994 8.04618 59.4328 8.32105C57.8984 14.8114 54.9404 19.2757 50.3549 24.7906C50.2529 24.9192 50.1065 24.9813 49.9557 24.9813Z" fill="#60608C"/>
</svg>
