<svg width="85" height="142" viewBox="0 0 85 142" fill="none" xmlns="http://www.w3.org/2000/svg">
<path d="M77.409 120.135C77.409 128.993 61.8611 142 42.6859 142C23.5106 142 7.96277 128.993 7.96277 120.135C7.96277 111.278 23.5106 104.101 42.6903 104.101C61.8611 104.101 77.409 111.282 77.409 120.135Z" fill="#724144"/>
<path d="M42.6859 93.2393V104.101C25.786 104.101 11.705 109.678 8.60342 117.063C4.12772 114.842 1.30445 112.165 0.774255 109.265C0.756582 109.172 0.743328 109.079 0.734491 108.986C0.703563 108.747 0.690308 108.512 0.690308 108.272C0.68589 99.9733 19.49 93.2393 42.6859 93.2393Z" fill="#6633CC"/>
<path d="M42.6859 93.2393V104.101C59.5858 104.101 73.6668 109.678 76.7684 117.063C81.2441 114.842 84.0674 112.165 84.5975 109.27C84.6152 109.177 84.6285 109.084 84.6373 108.99C84.6682 108.751 84.6815 108.516 84.6815 108.277C84.6859 99.9733 65.8818 93.2393 42.6859 93.2393Z" fill="#6633CC"/>
<path d="M17.4709 103.542C17.1528 103.542 16.8524 103.343 16.7419 103.023C16.6005 102.62 16.8082 102.177 17.2147 102.035C20.3693 100.913 23.9039 100.013 27.7169 99.3571C28.1366 99.2861 28.5387 99.5699 28.6094 99.991C28.6801 100.412 28.3973 100.816 27.9776 100.887C24.2485 101.529 20.8023 102.407 17.7316 103.498C17.6432 103.529 17.5549 103.542 17.4709 103.542Z" fill="#CE9CFF"/>
<path d="M6.32361 110.17C6.13804 110.17 5.95689 110.103 5.80667 109.97C5.48856 109.682 5.46205 109.194 5.74482 108.875C7.53421 106.871 10.1852 105.054 13.627 103.48C14.0158 103.302 14.4753 103.475 14.652 103.866C14.8288 104.256 14.6565 104.717 14.2676 104.894C11.0246 106.379 8.54158 108.068 6.89798 109.912C6.74776 110.081 6.53568 110.17 6.32361 110.17Z" fill="#CE9CFF"/>
<path d="M67.9009 103.542C67.817 103.542 67.7286 103.529 67.6446 103.498C64.4944 102.381 60.9554 101.485 57.1159 100.842C56.6962 100.771 56.409 100.372 56.4797 99.9467C56.5504 99.5256 56.948 99.2374 57.3722 99.3083C61.2956 99.9689 64.9274 100.887 68.1616 102.035C68.5636 102.177 68.7757 102.62 68.6343 103.023C68.5195 103.347 68.219 103.542 67.9009 103.542Z" fill="#CE9CFF"/>
<path d="M79.0483 110.17C78.8362 110.17 78.6241 110.081 78.4739 109.912C76.8259 108.068 74.3472 106.379 71.1042 104.894C70.7154 104.717 70.5431 104.256 70.7198 103.866C70.8966 103.475 71.3561 103.302 71.7449 103.48C75.1823 105.054 77.8376 106.867 79.627 108.875C79.9098 109.194 79.8833 109.686 79.5652 109.97C79.415 110.103 79.2294 110.17 79.0483 110.17Z" fill="#CE9CFF"/>
<path d="M17.1881 120.215C7.84351 117.657 1.58725 113.725 0.774292 109.265C1.43261 114.115 2.79786 121.12 4.3575 126.431C6.43409 131.937 13.8126 136.587 23.9392 139.194C25.2736 139.535 26.3737 138.125 25.7419 136.897C23.6874 132.899 21.982 128.261 20.8553 123.943C20.3825 122.13 18.9908 120.712 17.1881 120.215Z" fill="#8A82A2"/>
<path d="M68.1837 120.215C77.5283 117.657 83.7846 113.725 84.5976 109.265C83.9392 114.115 82.574 121.12 81.0144 126.431C78.9378 131.937 71.5593 136.587 61.4326 139.194C60.0983 139.535 58.9982 138.125 59.6255 136.897C61.68 132.899 63.3855 128.261 64.5121 123.943C64.9893 122.13 66.3811 120.712 68.1837 120.215Z" fill="#8A82A2"/>
<path d="M30.1735 89.7681V111.544C30.1735 120.512 42.686 128.08 42.686 128.08C42.686 128.08 55.1941 120.636 55.1941 111.544V89.7681H30.1735Z" fill="#E78C72"/>
<path d="M79.0482 51.1548C79.0482 53.5487 78.9201 55.9028 78.6771 58.2169C75.8538 85.1309 57.412 105.936 42.6859 105.936C27.9554 105.936 9.50918 85.1309 6.69474 58.2036C6.45174 55.8983 6.32361 53.5487 6.32361 51.1592C6.32361 20.907 22.6049 3.21411 42.6859 3.21411C62.7669 3.21411 79.0482 20.9026 79.0482 51.1548Z" fill="#F8A07E"/>
<path d="M42.6859 106.432C38.7272 106.432 34.3796 104.947 30.1204 102.137C29.8906 101.986 29.8244 101.671 29.9746 101.44C30.1248 101.21 30.4385 101.143 30.6683 101.294C34.764 103.998 38.9216 105.426 42.6815 105.426C45.3943 105.426 48.2618 104.703 51.2176 103.28C51.4694 103.161 51.7655 103.267 51.8892 103.515C52.0085 103.768 51.9024 104.065 51.655 104.189C48.5666 105.679 45.549 106.432 42.6859 106.432Z" fill="#BB6053"/>
<path d="M79.0482 51.1547C79.0482 53.5486 78.9201 55.9027 78.6771 58.2168C77.842 60.3625 77.1881 62.0427 77.1793 62.0693C77.1174 62.0648 77.0556 62.0338 77.0026 62.0028L76.9672 62.087C74.6962 61.1782 73.0747 58.27 73.6977 55.2067C74.3649 51.9084 74.8465 47.6791 74.2456 43.0153C73.3133 35.7759 70.2426 25.1584 63.5445 23.3053C60.8627 22.565 57.5048 23.1856 52.3001 25.1008C46.6845 27.1666 38.6521 27.1533 33.0674 25.1008C27.8627 23.1856 24.5048 22.565 21.8229 23.3053C15.1336 25.154 12.063 35.7671 11.1263 43.0109C10.5254 47.6746 11.0026 51.9039 11.6741 55.2022C12.3015 58.2434 10.6977 61.1604 8.40463 62.0826L8.36929 61.9983C8.31627 62.0294 8.26325 62.0604 8.20139 62.0826C8.16605 62.0028 8.14396 61.9407 8.12628 61.9008C8.12186 61.8786 8.11303 61.8565 8.09536 61.8299C7.94072 61.4176 7.54749 60.4112 6.69035 58.1991C6.44734 55.8938 6.31921 53.5442 6.31921 51.1547C6.31921 20.9025 22.6005 3.20959 42.6815 3.20959C62.7625 3.20959 79.0482 20.9025 79.0482 51.1547Z" fill="#C87D68"/>
<path d="M34.6756 60.5177C34.49 60.5177 34.3 60.4955 34.1101 60.4468L19.7242 56.8248C18.4827 56.5101 17.7271 55.2466 18.0364 54.0009C18.3457 52.7551 19.6093 51.9971 20.8509 52.3118L35.2367 55.9338C36.4782 56.2485 37.2338 57.512 36.9201 58.7577C36.6594 59.8128 35.7139 60.5177 34.6756 60.5177Z" fill="#724144"/>
<path d="M50.6962 60.5177C49.6579 60.5177 48.7124 59.8128 48.4473 58.7577C48.1336 57.512 48.8891 56.2485 50.1351 55.9338L64.521 52.3118C65.7625 51.9971 67.0217 52.7551 67.3354 54.0009C67.6491 55.2466 66.8936 56.5101 65.6476 56.8248L51.2617 60.4468C51.0762 60.4955 50.8862 60.5177 50.6962 60.5177Z" fill="#724144"/>
<path d="M27.4783 67.9611C26.0556 67.9611 24.9025 66.804 24.9025 65.3765V62.1314C24.9025 60.7039 26.0556 59.5469 27.4783 59.5469C28.901 59.5469 30.0542 60.7039 30.0542 62.1314V65.3765C30.0586 66.804 28.901 67.9611 27.4783 67.9611Z" fill="#6633CC"/>
<path d="M57.8936 67.9611C56.4709 67.9611 55.3177 66.804 55.3177 65.3765V62.1314C55.3177 60.7039 56.4709 59.5469 57.8936 59.5469C59.3163 59.5469 60.4694 60.7039 60.4694 62.1314V65.3765C60.4694 66.804 59.3163 67.9611 57.8936 67.9611Z" fill="#6633CC"/>
<path d="M44.6079 80.7198C42.5931 80.7198 41.1263 80.4538 39.7654 79.8464C38.6255 79.3366 37.8258 78.4189 37.5696 77.3195C37.3398 76.3176 37.6005 75.2669 38.2897 74.4424C39.1115 73.4582 39.4429 72.9528 39.5755 72.7001C40.4238 71.0864 40.8568 69.3708 40.8568 67.6064V62.65C40.8568 62.3663 41.0865 62.1313 41.3737 62.1313C41.6565 62.1313 41.8906 62.3619 41.8906 62.65V67.6064C41.8906 69.5437 41.4179 71.4189 40.49 73.1833C40.2603 73.6178 39.8008 74.2473 39.085 75.1073C38.599 75.6925 38.4179 76.393 38.5769 77.089C38.7581 77.8692 39.3457 78.5298 40.1852 78.9066C41.4974 79.4918 42.951 79.7267 45.032 79.6868C45.3148 79.6913 45.5534 79.9085 45.5578 80.1967C45.5622 80.4804 45.3369 80.7198 45.0497 80.7242C44.8951 80.7198 44.7492 80.7198 44.6079 80.7198Z" fill="#BB6053"/>
<path d="M34.68 86.8996C34.3266 86.8996 34.0084 86.6558 33.9245 86.2923C33.8317 85.8755 34.0924 85.4588 34.5121 85.3657C39.9996 84.1333 45.6682 84.1333 51.359 85.3657C51.7743 85.4544 52.0394 85.8711 51.951 86.2878C51.8626 86.7046 51.4517 86.9705 51.032 86.8819C45.5622 85.6982 40.1189 85.6982 34.8523 86.8819C34.7905 86.8908 34.733 86.8996 34.68 86.8996Z" fill="#BB6053"/>
<path d="M10.923 63.6786C10.3443 60.0345 8.4444 54.9097 4.6712 54.5684C1.91862 54.3201 -0.440727 57.246 2.41347 65.8154C4.02614 70.6653 7.7684 75.9586 10.1852 75.4266C11.9658 75.0321 11.8155 69.2955 10.923 63.6786Z" fill="#F8A07E"/>
<path d="M9.21758 65.2213C8.32068 60.203 5.50624 56.918 4.13216 57.1884C2.38695 57.5297 2.74041 61.5063 3.8759 64.7913C4.54306 66.7153 6.77428 71.0022 8.48857 70.2796C9.44291 69.8806 9.66383 67.735 9.21758 65.2213Z" fill="#EE8876"/>
<path d="M8.64759 68.4398C8.40901 68.4398 8.15275 68.3556 7.89649 68.196C7.39722 67.8812 6.8096 67.1719 6.65054 66.1257C6.48264 64.9996 6.65496 64.0864 7.18073 63.3327C7.26026 63.2219 7.4149 63.1909 7.52977 63.2707C7.64465 63.3505 7.67116 63.5056 7.59163 63.6209C7.14538 64.2637 6.99958 65.0573 7.1498 66.0503C7.28235 66.9281 7.76394 67.5177 8.166 67.7704C8.39575 67.9122 8.61666 67.9699 8.78014 67.9167C9.19987 67.7881 9.26615 66.897 8.97454 65.2612C8.29413 61.4442 6.50915 58.6912 5.13949 57.7513C4.76836 57.4942 4.42815 57.3789 4.18515 57.4277C3.89796 57.4853 3.67705 57.6671 3.50915 57.9819C2.72712 59.467 3.43404 63.1953 4.53861 65.7976C4.59163 65.9262 4.53419 66.0725 4.40606 66.1257C4.27793 66.1789 4.13213 66.1212 4.07911 65.9927C2.90385 63.2219 2.20577 59.3828 3.06733 57.7469C3.30591 57.2947 3.65054 57.0199 4.08795 56.9356C4.46792 56.8603 4.93183 56.9977 5.42226 57.3346C6.87587 58.3321 8.75805 61.2092 9.46497 65.1725C9.82727 67.2029 9.66379 68.1694 8.92594 68.3955C8.83316 68.4265 8.74038 68.4398 8.64759 68.4398Z" fill="#BB6053"/>
<path d="M74.4488 63.6786C75.0276 60.0345 76.9274 54.9097 80.7006 54.5684C83.4532 54.3201 85.8125 57.246 82.9583 65.8154C81.3457 70.6653 77.6034 75.9586 75.1866 75.4266C73.4061 75.0321 73.5563 69.2955 74.4488 63.6786Z" fill="#F8A07E"/>
<path d="M76.1542 65.2213C77.0467 60.203 79.8611 56.918 81.2352 57.1884C82.9804 57.5297 82.627 61.5063 81.4915 64.7913C80.8243 66.7153 78.5931 71.0022 76.8788 70.2796C75.9289 69.8806 75.708 67.735 76.1542 65.2213Z" fill="#EE8876"/>
<path d="M76.7242 68.4399C76.627 68.4399 76.5386 68.4266 76.4503 68.4C75.7124 68.1739 75.549 67.2119 75.9112 65.177C76.6182 61.2182 78.5004 58.3366 79.954 57.3391C80.4444 57.0022 80.9039 56.8648 81.2883 56.9401C81.7257 57.0244 82.0703 57.2992 82.3089 57.7514C83.1749 59.3873 82.4724 63.2309 81.2971 65.9972C81.2441 66.1257 81.0983 66.1834 80.9702 66.1302C80.842 66.077 80.7846 65.9307 80.8376 65.8021C81.9422 63.1998 82.6491 59.4715 81.8671 57.9864C81.6992 57.6672 81.4783 57.4854 81.1911 57.4322C80.9481 57.3835 80.6079 57.4987 80.2367 57.7558C78.8671 58.6957 77.0821 61.4487 76.4017 65.2657C76.1101 66.8971 76.1763 67.7926 76.5961 67.9212C76.7596 67.97 76.9849 67.9168 77.2102 67.7749C77.6167 67.5178 78.0939 66.9326 78.2264 66.0548C78.3766 65.0618 78.2308 64.2682 77.7846 63.6254C77.7051 63.5101 77.7316 63.355 77.8464 63.2752C77.9613 63.1954 78.116 63.222 78.1955 63.3372C78.7213 64.0909 78.8936 65.0041 78.7257 66.1302C78.5666 67.1764 77.979 67.8857 77.4797 68.2005C77.2235 68.3556 76.9628 68.4399 76.7242 68.4399Z" fill="#BB6053"/>
<path d="M24.1955 78.0333C24.1381 78.0333 24.0762 78.02 24.0232 77.989C19.3575 75.4488 15.1822 72.2037 12.5711 69.0782C12.4429 68.9231 12.4606 68.697 12.6152 68.5684C12.7699 68.4399 12.9952 68.462 13.1233 68.6128C15.6771 71.6717 19.7772 74.8547 24.3678 77.355C24.5445 77.4481 24.6064 77.6698 24.5136 77.8471C24.4473 77.9668 24.3236 78.0333 24.1955 78.0333Z" fill="#FCFCFD"/>
<path d="M25.7684 77.6698C25.7684 78.5431 25.0659 79.248 24.1955 79.248C23.3251 79.248 22.6226 78.5431 22.6226 77.6698C22.6226 76.7964 23.3251 76.0916 24.1955 76.0916C25.0614 76.096 25.7684 76.8009 25.7684 77.6698Z" fill="#FCFCFD"/>
<path d="M61.1763 78.0333C61.0482 78.0333 60.9245 77.9668 60.8582 77.8427C60.761 77.6654 60.8273 77.4482 61.004 77.3506C65.5946 74.8547 69.6947 71.6673 72.2485 68.6083C72.3766 68.4532 72.6019 68.4355 72.7566 68.564C72.9112 68.6926 72.9289 68.9187 72.8008 69.0738C70.1896 72.1992 66.0143 75.4488 61.3486 77.9846C61.2956 78.02 61.2338 78.0333 61.1763 78.0333Z" fill="#FCFCFD"/>
<path d="M59.6035 77.6698C59.6035 78.5431 60.306 79.248 61.1764 79.248C62.0468 79.248 62.7493 78.5431 62.7493 77.6698C62.7493 76.7964 62.0468 76.0916 61.1764 76.0916C60.3104 76.096 59.6035 76.8009 59.6035 77.6698Z" fill="#FCFCFD"/>
<path d="M24.6064 83.9959C24.5489 83.9959 24.4915 83.9826 24.4385 83.956C21.1601 82.2271 18.4738 80.2853 16.2294 78.0155C16.1675 77.9535 16.1277 77.8692 16.1233 77.7806C16.0217 75.8211 15.9819 74.2429 15.9819 72.3322C15.9819 72.1327 16.1454 71.9686 16.3442 71.9686C16.5431 71.9686 16.7065 72.1327 16.7065 72.3322C16.7065 74.1852 16.7463 75.7236 16.8391 77.6032C19.0084 79.7755 21.6064 81.6463 24.7743 83.3132C24.951 83.4063 25.0173 83.6235 24.9245 83.8009C24.8582 83.925 24.7345 83.9959 24.6064 83.9959Z" fill="#FCFCFD"/>
<path d="M26.1749 83.6324C26.1749 84.5058 25.4724 85.2106 24.602 85.2106C23.7316 85.2106 23.0291 84.5058 23.0291 83.6324C23.0291 82.7591 23.7316 82.0542 24.602 82.0542C25.4724 82.0542 26.1749 82.7635 26.1749 83.6324Z" fill="#FCFCFD"/>
<path d="M41.7713 43.9552C41.7713 44.8241 41.0688 45.5334 40.1984 45.5334C39.3324 45.5334 38.6255 44.8285 38.6255 43.9552C38.6255 43.0818 39.328 42.377 40.1984 42.377C41.0688 42.377 41.7713 43.0818 41.7713 43.9552Z" fill="#FCFCFD"/>
<path d="M40.1985 44.3143C39.9997 44.3143 39.8362 44.1503 39.8362 43.9508V26.3909C39.8362 26.1914 39.9997 26.0273 40.1985 26.0273C40.3973 26.0273 40.5608 26.1914 40.5608 26.3909V43.9552C40.5608 44.1547 40.3973 44.3143 40.1985 44.3143Z" fill="#FCFCFD"/>
<path d="M46.7463 40.1427C46.7463 41.016 46.0438 41.7209 45.1734 41.7209C44.303 41.7209 43.6005 41.016 43.6005 40.1427C43.6005 39.2693 44.303 38.5645 45.1734 38.5645C46.0393 38.5645 46.7463 39.2738 46.7463 40.1427Z" fill="#FCFCFD"/>
<path d="M45.1735 40.5063C44.9746 40.5063 44.8112 40.3422 44.8112 40.1427V22.5784C44.8112 22.3789 44.9746 22.2148 45.1735 22.2148C45.3723 22.2148 45.5358 22.3789 45.5358 22.5784V40.1427C45.5358 40.3422 45.3723 40.5063 45.1735 40.5063Z" fill="#FCFCFD"/>
<path d="M45.0364 92.0201H40.2691C39.5578 92.0201 38.979 91.4394 38.979 90.7256C38.979 90.0119 39.5578 89.4312 40.2691 89.4312H45.0364C45.7478 89.4312 46.3266 90.0119 46.3266 90.7256C46.3222 91.4394 45.7478 92.0201 45.0364 92.0201Z" fill="#D47A64"/>
<path d="M61.6933 11.6194C61.5519 7.00446 55.4194 0.00443321 42.6859 0C29.8641 0.00443321 23.8155 7.0887 23.6786 11.6194C23.5946 15.0552 26.8907 18.6283 29.2986 21.4877C33.1999 25.9254 37.0173 26.6258 42.7964 26.6081C48.6594 26.5992 52.3001 25.7835 56.0733 21.4877C58.3929 18.7347 61.7817 15.0153 61.6933 11.6194Z" fill="#724144"/>
<path d="M42.5225 112.896C40.6624 112.896 39.1646 111.437 39.1116 109.571C39.1027 109.287 39.3281 109.048 39.6108 109.039C39.8892 109.021 40.1322 109.256 40.141 109.54C40.1764 110.839 41.2235 111.859 42.5225 111.859C42.7611 111.859 42.9996 111.823 43.225 111.752C43.4989 111.668 43.7861 111.819 43.87 112.094C43.954 112.368 43.8038 112.657 43.5298 112.741C43.2073 112.847 42.8671 112.896 42.5225 112.896Z" fill="#BB6053"/>
<path d="M28.5961 62.1314C28.5961 62.752 28.0969 63.253 27.4783 63.253C26.8597 63.253 26.3605 62.752 26.3605 62.1314C26.3605 61.5107 26.8597 61.0098 27.4783 61.0098C28.0969 61.0098 28.5961 61.5107 28.5961 62.1314Z" fill="#6EC8FF"/>
<path d="M59.007 62.0161C59.007 62.6368 58.5077 63.1377 57.8892 63.1377C57.2706 63.1377 56.7714 62.6368 56.7714 62.0161C56.7714 61.3955 57.2706 60.8945 57.8892 60.8945C58.5077 60.899 59.007 61.3999 59.007 62.0161Z" fill="#FCFCFD"/>
<path d="M23.9392 139.198C23.6388 139.123 23.3472 139.043 23.0512 138.968C23.1572 138.6 23.1351 138.192 22.9319 137.797C20.8774 133.798 18.6197 129.919 17.493 125.601C17.0202 123.784 15.6285 122.365 13.8214 121.873C9.00993 120.552 4.79049 117.923 1.71538 115.073C1.32657 112.985 1.00404 110.994 0.774292 109.27C1.58725 113.729 7.84793 117.666 17.1881 120.22C18.9908 120.716 20.3825 122.139 20.8597 123.948C21.9908 128.27 23.6962 132.907 25.7463 136.902C26.3781 138.134 25.2736 139.539 23.9392 139.198Z" fill="#B6A4BA"/>
<path d="M61.4327 139.198C61.7331 139.123 62.0247 139.043 62.3207 138.968C62.2147 138.6 62.2368 138.192 62.44 137.797C64.4989 133.798 66.7522 129.919 67.8789 125.601C68.3516 123.788 69.7434 122.365 71.5505 121.873C76.3575 120.556 80.5814 117.923 83.6565 115.073C84.0453 112.985 84.3678 110.994 84.602 109.27C83.7891 113.729 77.5284 117.666 68.1882 120.22C66.3855 120.716 64.9938 122.139 64.5166 123.948C63.3855 128.27 61.6801 132.903 59.63 136.902C58.9938 138.134 60.0983 139.539 61.4327 139.198Z" fill="#B6A4BA"/>
<path d="M59.6609 43.6138C59.5548 43.6183 59.4576 43.5473 59.4179 43.4454L57.3236 37.7797C57.2971 37.7044 57.306 37.6157 57.3501 37.5492L61.0173 31.9545C61.0659 31.8836 61.1454 31.8392 61.2294 31.8392L67.035 31.7683C67.1587 31.7683 67.2426 31.8348 67.278 31.9368L69.4076 37.6866C69.4385 37.7664 69.4252 37.8551 69.3766 37.926L65.8155 43.0242C65.7713 43.0863 65.7007 43.1262 65.6255 43.135C65.6255 43.1306 59.683 43.6138 59.6609 43.6138ZM57.8538 37.7221L59.8332 43.0818L65.4621 42.6252L68.8774 37.7398L66.8582 32.287L61.3708 32.3579L57.8538 37.7221Z" fill="#BB6053"/>
<path d="M56.334 47.6259C56.2765 47.6259 56.2191 47.6082 56.1705 47.5638C56.06 47.4707 56.0468 47.3111 56.1351 47.2003L59.4621 43.1883C59.5549 43.0774 59.7139 43.0641 59.8244 43.1528C59.9349 43.2459 59.9481 43.4055 59.8597 43.5163L56.5328 47.5284C56.4798 47.5949 56.4047 47.6259 56.334 47.6259Z" fill="#BB6053"/>
<path d="M67.0393 32.2826C66.9952 32.2826 66.951 32.2737 66.9112 32.2471C66.7875 32.1762 66.7433 32.0166 66.814 31.8925L68.1041 29.6271C68.1748 29.503 68.3339 29.4586 68.4576 29.5296C68.5813 29.6005 68.6255 29.7601 68.5548 29.8842L67.2647 32.1496C67.2161 32.2383 67.1277 32.2826 67.0393 32.2826Z" fill="#BB6053"/>
</svg>
