<svg width="85" height="143" viewBox="0 0 85 143" fill="none" xmlns="http://www.w3.org/2000/svg">
<path d="M77.0257 120.137C77.0257 128.995 61.4156 142.002 42.1636 142.002C22.9116 142.002 7.30151 128.995 7.30151 120.137C7.30151 111.28 22.9116 104.102 42.1681 104.102C61.4156 104.102 77.0257 111.284 77.0257 120.137Z" fill="#724144"/>
<path d="M42.1637 93.2402V104.102C25.1962 104.102 11.0588 109.679 7.94478 117.065C3.45117 114.844 0.616597 112.166 0.0842838 109.266C0.06654 109.173 0.0532321 109.08 0.0443603 108.987C0.0133086 108.748 7.8155e-07 108.513 7.8155e-07 108.273C-0.00443517 99.9744 18.875 93.2402 42.1637 93.2402Z" fill="#FFB600"/>
<path d="M42.1636 93.2402V104.102C59.1311 104.102 73.2684 109.679 76.3825 117.065C80.8761 114.844 83.7107 112.166 84.243 109.271C84.2607 109.178 84.274 109.085 84.2829 108.992C84.3139 108.752 84.3273 108.517 84.3273 108.278C84.3317 99.9744 65.4523 93.2402 42.1636 93.2402Z" fill="#FFB600"/>
<path d="M16.8477 103.544C16.5283 103.544 16.2267 103.344 16.1158 103.025C15.9738 102.622 16.1823 102.178 16.5904 102.036C19.7577 100.915 23.3064 100.015 27.1347 99.3587C27.5605 99.2833 27.9597 99.5715 28.0307 99.9926C28.1017 100.414 27.8178 100.817 27.3964 100.888C23.6524 101.531 20.1924 102.409 17.1094 103.499C17.0207 103.53 16.932 103.544 16.8477 103.544Z" fill="#FFFFA4"/>
<path d="M5.65581 110.171C5.47394 110.171 5.28763 110.105 5.1368 109.972C4.81741 109.688 4.7908 109.196 5.0747 108.877C6.87126 106.873 9.53283 105.055 12.9884 103.481C13.3788 103.304 13.8401 103.477 14.0176 103.867C14.195 104.257 14.022 104.718 13.6316 104.896C10.3757 106.381 7.88709 108.07 6.23248 109.914C6.08166 110.082 5.86873 110.171 5.65581 110.171Z" fill="#FFFFA4"/>
<path d="M67.4796 103.543C67.3953 103.543 67.3066 103.53 67.2223 103.499C64.0595 102.382 60.5063 101.486 56.6515 100.839C56.2301 100.768 55.9417 100.369 56.0127 99.948C56.0837 99.5268 56.4829 99.2386 56.9043 99.3096C60.8434 99.9701 64.4898 100.888 67.7369 102.036C68.1406 102.178 68.3535 102.621 68.2116 103.025C68.1007 103.348 67.799 103.543 67.4796 103.543Z" fill="#FFFFA4"/>
<path d="M78.6716 110.171C78.4587 110.171 78.2457 110.082 78.0949 109.914C76.4403 108.07 73.9517 106.381 70.6958 104.896C70.3054 104.718 70.1324 104.257 70.3098 103.867C70.4873 103.477 70.9486 103.304 71.339 103.481C74.7901 105.055 77.4517 106.868 79.2527 108.877C79.5366 109.196 79.51 109.688 79.1906 109.972C79.0398 110.105 78.8535 110.171 78.6716 110.171Z" fill="#FFFFA4"/>
<path d="M16.5638 120.217C7.18174 117.659 0.900443 113.727 0.0842285 109.267C0.745185 114.117 2.11589 121.121 3.68178 126.432C5.76668 131.939 13.1747 136.589 23.3419 139.196C24.6816 139.537 25.7861 138.127 25.1518 136.899C23.0891 132.901 21.3768 128.263 20.2456 123.945C19.771 122.132 18.3736 120.714 16.5638 120.217Z" fill="#8A82A2"/>
<path d="M67.7635 120.217C77.1456 117.659 83.4269 113.727 84.2431 109.267C83.5821 114.117 82.2114 121.121 80.6455 126.432C78.5606 131.939 71.1526 136.589 60.9854 139.196C59.6458 139.537 58.5412 138.127 59.1755 136.899C61.2383 132.901 62.9505 128.263 64.0817 123.945C64.5563 122.132 65.9537 120.714 67.7635 120.217Z" fill="#8A82A2"/>
<path d="M29.6011 89.7693V111.546C29.6011 120.514 42.1637 128.082 42.1637 128.082C42.1637 128.082 54.7218 120.638 54.7218 111.546V89.7693H29.6011Z" fill="#E78C72"/>
<path d="M78.6716 51.1556C78.6716 53.5496 78.5429 55.9036 78.299 58.2178C75.4644 85.1322 56.9487 105.938 42.1637 105.938C27.3743 105.938 8.8542 85.1322 6.0285 58.2045C5.78453 55.8992 5.65588 53.5496 5.65588 51.16C5.65588 20.9074 22.0023 3.21423 42.1637 3.21423C62.3251 3.21423 78.6716 20.903 78.6716 51.1556Z" fill="#F8A07E"/>
<path d="M78.6715 51.1552C78.6715 53.5491 78.5429 55.9032 78.2989 58.2174C77.4605 60.3631 76.804 62.0433 76.7951 62.0699C76.733 62.0654 76.6709 62.0344 76.6177 62.0034L76.5822 62.0876C74.3021 61.1788 72.6741 58.2705 73.2996 55.2072C73.9694 51.9088 74.4529 47.6795 73.8496 43.0157C72.9136 35.7761 69.8307 25.1585 63.1058 23.3054C60.4131 22.565 57.0418 23.1857 51.8163 25.1008C46.1782 27.1667 38.1136 27.1534 32.5066 25.1008C27.281 23.1857 23.9097 22.565 21.2171 23.3054C14.5011 25.154 11.4181 35.7673 10.4777 43.0112C9.87439 47.675 10.3535 51.9044 11.0277 55.2027C11.6576 58.2439 10.0474 61.161 7.74513 62.0832L7.70965 61.9989C7.65642 62.03 7.60318 62.061 7.54108 62.0832C7.50559 62.0034 7.48341 61.9413 7.46567 61.9014C7.46123 61.8792 7.45236 61.8571 7.43462 61.8305C7.27936 61.4182 6.88456 60.4118 6.02399 58.1996C5.78001 55.8943 5.65137 53.5447 5.65137 51.1552C5.65137 20.9025 21.9978 3.20935 42.1592 3.20935C62.3206 3.20935 78.6715 20.9025 78.6715 51.1552Z" fill="#EABD88"/>
<path d="M26.8952 65.1202C25.6087 65.1202 24.5663 64.0784 24.5663 62.7927V59.5476C24.5663 58.2619 25.6087 57.2201 26.8952 57.2201C28.1816 57.2201 29.224 58.2619 29.224 59.5476V62.7927C29.224 64.0784 28.1816 65.1202 26.8952 65.1202Z" fill="#724144"/>
<path d="M57.4323 65.1202C56.1458 65.1202 55.1034 64.0784 55.1034 62.7927V59.5476C55.1034 58.2619 56.1458 57.2201 57.4323 57.2201C58.7187 57.2201 59.7611 58.2619 59.7611 59.5476V62.7927C59.7611 64.0784 58.7187 65.1202 57.4323 65.1202Z" fill="black"/>
<path d="M43.7295 79.8257C43.7118 79.8257 43.694 79.8257 43.6718 79.8213C38.9387 79.3114 37.2087 78.642 36.9425 75.9022C36.8227 74.6742 37.4438 73.4152 38.1579 71.9566C38.8588 70.5336 39.6529 68.9198 40.0521 66.8672C40.5223 64.4467 40.2428 62.7266 39.0496 60.7405C38.9032 60.4966 38.983 60.1774 39.227 60.0311C39.471 59.8848 39.7904 59.9646 39.9368 60.2085C41.2587 62.4118 41.5869 64.3979 41.0679 67.0623C40.6421 69.2479 39.7815 71.0035 39.0895 72.4088C38.4152 73.7787 37.8829 74.8649 37.9716 75.8003C38.1535 77.6534 38.9342 78.2696 43.7827 78.7927C44.0666 78.8238 44.2707 79.0765 44.2441 79.3646C44.213 79.6306 43.9912 79.8257 43.7295 79.8257Z" fill="#BB6053"/>
<path d="M50.9513 87.2424C50.8892 87.2424 50.8271 87.2336 50.7649 87.2203C47.5578 86.4311 42.9311 86.5242 39.2137 86.5996C36.1662 86.6617 33.7575 86.7104 32.5554 86.3114C32.1473 86.1784 31.9255 85.7395 32.063 85.3317C32.1961 84.9238 32.6352 84.7066 33.0433 84.8396C33.9971 85.1543 36.5167 85.1011 39.1827 85.048C42.9932 84.9726 47.7308 84.8795 51.1376 85.7129C51.5545 85.8149 51.8074 86.2361 51.7054 86.6528C51.6167 87.003 51.2973 87.2424 50.9513 87.2424Z" fill="#BB6053"/>
<path d="M10.2737 63.68C9.69259 60.0358 7.78513 54.911 3.99683 54.5696C1.23323 54.3213 -1.13556 57.2473 1.73006 65.8168C3.34918 70.6668 7.10643 75.9601 9.53289 75.4281C11.3206 75.0336 11.1698 69.2969 10.2737 63.68Z" fill="#F8A07E"/>
<path d="M8.56138 65.2221C7.66088 60.2036 4.83518 56.9186 3.45561 57.189C1.70341 57.5304 2.05828 61.507 3.19832 64.792C3.86815 66.7161 6.1083 71.0031 7.82945 70.2804C8.78761 69.8814 9.00941 67.7357 8.56138 65.2221Z" fill="#EA7A6E"/>
<path d="M7.98921 68.4412C7.74967 68.4412 7.49239 68.3569 7.2351 68.1973C6.73384 67.8826 6.14386 67.1733 5.98417 66.127C5.81116 65.001 5.9886 64.0877 6.51204 63.3341C6.59189 63.2232 6.74715 63.1922 6.86248 63.272C6.97782 63.3518 7.00443 63.5069 6.92459 63.6222C6.47212 64.265 6.33017 65.063 6.48099 66.0516C6.61407 66.9294 7.09759 67.5191 7.5057 67.7718C7.73193 67.9136 7.95816 67.9712 8.12229 67.918C8.54371 67.7895 8.61025 66.8984 8.31747 65.2625C7.63434 61.4455 5.84222 58.6924 4.46707 57.7526C4.09445 57.4954 3.75288 57.3846 3.50891 57.4289C3.22057 57.4866 2.99877 57.6683 2.83021 57.9831C2.04504 59.4682 2.7548 63.1966 3.86378 65.7989C3.91701 65.9275 3.85935 66.0738 3.7307 66.127C3.60206 66.1802 3.45568 66.1226 3.40244 65.994C2.22248 63.2232 1.5216 59.384 2.38661 57.7481C2.62615 57.2959 2.97216 57.0211 3.41132 56.9368C3.79281 56.8615 4.25858 56.9989 4.75097 57.3358C6.2104 58.3333 8.10011 61.2105 8.80986 65.1739C9.17361 67.2043 9.00948 68.1707 8.26868 68.3968C8.17552 68.4279 8.08237 68.4412 7.98921 68.4412Z" fill="#BB6053"/>
<path d="M74.0536 63.68C74.6348 60.0358 76.5422 54.911 80.3305 54.5696C83.0941 54.3213 85.4629 57.2473 82.5973 65.8168C80.9782 70.6668 77.2209 75.9601 74.7944 75.4281C73.0068 75.0336 73.1576 69.2969 74.0536 63.68Z" fill="#F8A07E"/>
<path d="M75.7661 65.2221C76.6621 60.2036 79.4878 56.9186 80.8674 57.189C82.6196 57.5304 82.2647 61.507 81.1247 64.792C80.4549 66.7161 78.2147 71.0031 76.4936 70.2804C75.5398 69.8814 75.318 67.7357 75.7661 65.2221Z" fill="#EA7A6E"/>
<path d="M76.3382 68.4408C76.245 68.4408 76.1519 68.4275 76.0632 68.4009C75.3224 68.1748 75.1582 67.2128 75.522 65.1779C76.2317 61.219 78.1214 58.3418 79.5809 57.3399C80.0733 57.0029 80.539 56.8655 80.9205 56.9409C81.3597 57.0251 81.7057 57.3 81.9452 57.7522C82.8147 59.388 82.1094 63.2272 80.9294 65.998C80.8762 66.1266 80.7253 66.1842 80.6011 66.131C80.4725 66.0778 80.4148 65.9315 80.4681 65.803C81.577 63.2006 82.2868 59.4723 81.5016 57.9871C81.3331 57.6679 81.1113 57.4862 80.8229 57.433C80.579 57.3842 80.2374 57.4995 79.8648 57.7566C78.4896 58.6964 76.6975 61.4495 76.0144 65.2665C75.7216 66.898 75.7881 67.7935 76.2095 67.9221C76.3737 67.9708 76.5999 67.9176 76.8261 67.7758C77.2343 67.5187 77.7133 66.9335 77.8464 66.0557C77.9972 65.0626 77.8508 64.2691 77.4028 63.6262C77.323 63.5154 77.3496 63.3558 77.4649 63.276C77.5803 63.1962 77.7355 63.2228 77.8154 63.3381C78.3432 64.0917 78.5162 65.005 78.3432 66.131C78.1835 67.1773 77.5936 67.8866 77.0923 68.2014C76.8395 68.3565 76.5777 68.4408 76.3382 68.4408Z" fill="#BB6053"/>
<path d="M34.1968 117.061C34.1968 117.934 34.9021 118.639 35.776 118.639C36.6499 118.639 37.3552 117.934 37.3552 117.061C37.3552 116.192 36.6499 115.482 35.776 115.482C34.9065 115.487 34.1968 116.192 34.1968 117.061Z" fill="#FCFCFD"/>
<path d="M13.6406 63.8304C13.6406 64.7038 12.9353 65.4087 12.0614 65.4087C11.1875 65.4087 10.4822 64.7038 10.4822 63.8304C10.4822 62.9615 11.1875 62.2522 12.0614 62.2522C12.9308 62.2522 13.6406 62.9615 13.6406 63.8304Z" fill="#FCFCFD"/>
<path d="M45.1491 92.5712H39.094C38.3798 92.5712 37.7987 91.9904 37.7987 91.2767C37.7987 90.5629 38.3798 89.9822 39.094 89.9822H45.1491C45.8633 89.9822 46.4444 90.5629 46.4444 91.2767C46.4444 91.9904 45.8633 92.5712 45.1491 92.5712Z" fill="#D47A64"/>
<path d="M61.2471 11.6196C61.1051 7.00456 54.948 0.00443327 42.1636 0C29.2905 0.00443327 23.2177 7.0888 23.0802 11.6196C22.9959 15.0554 26.3051 18.6286 28.7227 21.4881C32.6397 25.9258 36.4723 26.6262 42.2745 26.6085C48.161 26.5996 51.8163 25.7839 55.6046 21.4881C57.9334 18.735 61.3358 15.0155 61.2471 11.6196Z" fill="#FFE59C"/>
<path d="M41.9995 112.897C40.132 112.897 38.6282 111.439 38.575 109.572C38.5661 109.289 38.7923 109.049 39.0762 109.04C39.3557 109.018 39.5997 109.257 39.6085 109.541C39.644 110.84 40.6953 111.86 41.9995 111.86C42.2391 111.86 42.4786 111.824 42.7048 111.753C42.9799 111.669 43.2682 111.824 43.3525 112.095C43.4368 112.37 43.2859 112.658 43.0109 112.742C42.6871 112.848 42.3455 112.897 41.9995 112.897Z" fill="#BB6053"/>
<path d="M34.1214 59.4814C33.9351 59.4814 33.7443 59.4593 33.5536 59.4105L19.1101 55.7885C17.8636 55.4738 17.1051 54.2103 17.42 52.9645C17.7305 51.7188 18.9992 50.9607 20.2457 51.271L34.6892 54.893C35.9357 55.2078 36.6942 56.4713 36.3793 57.717C36.1131 58.7766 35.1638 59.4814 34.1214 59.4814Z" fill="#FFE59C"/>
<path d="M50.2061 59.4814C49.1637 59.4814 48.2144 58.7765 47.9482 57.7214C47.6333 56.4757 48.3918 55.2122 49.6383 54.8974L64.0818 51.2754C65.3283 50.9651 66.5925 51.7188 66.9075 52.969C67.2224 54.2147 66.4639 55.4782 65.2174 55.7929L50.7739 59.4149C50.5876 59.4593 50.3969 59.4814 50.2061 59.4814Z" fill="#FFE59C"/>
<path d="M31.9876 102.874C31.89 102.874 31.7879 102.834 31.717 102.754C23.8254 93.9233 21.9889 82.3835 21.705 80.158L21.7006 80.1181C21.674 79.963 21.7538 79.8034 21.9002 79.7324L27.2411 77.1345L26.9261 72.6702C23.7855 71.9565 19.8286 70.662 17.1937 69.4783C17.1582 69.465 17.1316 69.4428 17.1005 69.4207C15.4326 67.9444 13.4453 65.945 11.7907 64.0741C11.6576 63.9234 11.6709 63.6973 11.8217 63.5643C11.9726 63.4313 12.1988 63.4446 12.3319 63.5953C13.9554 65.4307 15.8984 67.3902 17.5397 68.8443C20.1658 70.0191 24.2779 71.3491 27.3431 72.023C27.4984 72.0585 27.6137 72.1914 27.627 72.351L27.9775 77.3252C27.9863 77.4715 27.9065 77.6133 27.7734 77.6754L22.4503 80.2689C22.8096 82.8756 24.7215 93.8435 32.2581 102.276C32.3912 102.426 32.3779 102.652 32.2271 102.785C32.1606 102.843 32.0763 102.874 31.9876 102.874Z" fill="#FCFCFD"/>
<path d="M22.0555 80.3128C22.0112 80.3128 21.9624 80.2995 21.9225 80.2729C18.9947 78.4729 17.4022 77.2538 14.8338 74.8377C14.7273 74.7401 14.7229 74.5761 14.8205 74.4741C14.9181 74.3677 15.0822 74.3633 15.1842 74.4608C17.7216 76.8504 19.2964 78.0518 22.1886 79.834C22.3084 79.9093 22.3483 80.0689 22.2729 80.1886C22.2285 80.2684 22.1442 80.3128 22.0555 80.3128Z" fill="#FCFCFD"/>
<path d="M35.7759 117.322C35.6783 117.322 35.5807 117.264 35.5364 117.167C33.7265 113.017 32.8304 109.532 32.0985 103.858C32.0808 103.716 32.1784 103.587 32.3203 103.57C32.4623 103.548 32.5909 103.649 32.6086 103.791C33.3317 109.417 34.2189 112.862 36.0066 116.963C36.0643 117.096 36.0021 117.246 35.8735 117.304C35.8469 117.313 35.8114 117.322 35.7759 117.322Z" fill="#FCFCFD"/>
<path d="M12.0613 75.7642C11.9504 75.7642 11.844 75.6889 11.8129 75.5781C11.773 75.4406 11.8528 75.2988 11.9903 75.2589L14.8205 74.4387L17.105 69.0479C17.1582 68.9149 17.3135 68.8572 17.4421 68.9104C17.5752 68.9636 17.6373 69.1188 17.5796 69.2473L15.2508 74.749C15.2197 74.82 15.1576 74.8732 15.0822 74.8953L12.1323 75.751C12.1101 75.7598 12.0835 75.7642 12.0613 75.7642Z" fill="#FCFCFD"/>
<path d="M64.7959 42.7548C64.7959 43.6281 65.5012 44.333 66.3751 44.333C67.249 44.333 67.9543 43.6281 67.9543 42.7548C67.9543 41.8814 67.249 41.1765 66.3751 41.1765C65.5012 41.1765 64.7959 41.8814 64.7959 42.7548Z" fill="#FCFCFD"/>
<path d="M59.4639 86.1163C59.4639 86.9897 60.1692 87.6946 61.0431 87.6946C61.9125 87.6946 62.6223 86.9897 62.6223 86.1163C62.6223 85.243 61.9169 84.5381 61.0431 84.5381C60.1736 84.5381 59.4639 85.2474 59.4639 86.1163Z" fill="#FCFCFD"/>
<path d="M62.6224 80.3133C62.5824 80.3133 62.547 80.3045 62.507 80.2867L56.9444 77.578C56.8512 77.5337 56.7935 77.4317 56.798 77.3253L57.1484 72.3512C57.1573 72.2359 57.2371 72.1428 57.3525 72.1162C60.4532 71.4335 64.6052 70.0858 67.2269 68.911C67.289 68.8844 67.3644 68.8799 67.4265 68.9065C67.493 68.9331 67.5418 68.9819 67.5684 69.0484L69.8973 74.5501C69.9372 74.6476 69.9151 74.7673 69.8352 74.8383C67.2801 77.2411 65.692 78.4602 62.751 80.2734C62.7155 80.3 62.6667 80.3133 62.6224 80.3133ZM57.3303 77.1879L62.6091 79.7592C65.3904 78.0391 66.943 76.8465 69.3606 74.5856L67.2047 69.4917C64.5653 70.6488 60.7149 71.8946 57.6585 72.5817L57.3303 77.1879Z" fill="#FCFCFD"/>
<path d="M23.3419 139.2C23.0403 139.12 22.7475 139.045 22.4503 138.969C22.5567 138.602 22.5346 138.194 22.3305 137.799C20.2678 133.8 18.001 129.921 16.8699 125.603C16.3952 123.786 14.9979 122.367 13.1836 121.875C8.35283 120.554 4.1165 117.925 1.02909 115.074C0.638722 112.986 0.314898 110.996 0.0842285 109.271C0.900443 113.731 7.18618 117.668 16.5638 120.221C18.3736 120.718 19.771 122.141 20.25 123.95C21.3856 128.272 23.0979 132.909 25.1562 136.904C25.7905 138.136 24.6816 139.541 23.3419 139.2Z" fill="#A49FB7"/>
<path d="M60.9854 139.2C61.2871 139.12 61.5798 139.045 61.877 138.969C61.7706 138.602 61.7927 138.194 61.9968 137.799C64.0595 133.8 66.3263 129.921 67.4575 125.603C67.9321 123.786 69.3294 122.367 71.1437 121.875C75.9745 120.558 80.2108 117.925 83.2982 115.074C83.6886 112.986 84.0124 110.996 84.2475 109.271C83.4313 113.731 77.1456 117.668 67.768 120.221C65.9581 120.718 64.5608 122.141 64.0817 123.95C62.9505 128.272 61.2338 132.905 59.1755 136.904C58.5368 138.136 59.6458 139.541 60.9854 139.2Z" fill="#A49FB7"/>
<path d="M58.9758 59.9643C58.9758 60.8155 58.2838 61.5071 57.4321 61.5071C56.5804 61.5071 55.8884 60.8155 55.8884 59.9643C55.8884 59.1131 56.5804 58.4215 57.4321 58.4215C58.2838 58.4215 58.9758 59.1131 58.9758 59.9643Z" fill="#FF003D"/>
<path d="M57.41 72.63C57.2681 72.63 57.1616 72.5147 57.1616 72.3729V65.2752C57.1616 65.1333 57.2858 65.0181 57.4322 65.0181C57.5742 65.0181 57.6806 65.1333 57.6806 65.2752V72.3729C57.6806 72.5147 57.552 72.63 57.41 72.63Z" fill="#FCFCFD"/>
<path d="M57.4322 55.6018C57.2903 55.6018 57.1749 55.4866 57.1749 55.3447V45.5738C57.1749 45.4541 57.2592 45.3477 57.3745 45.3211C60.7858 44.532 62.8796 43.9423 66.2731 42.5148C66.4017 42.4572 66.557 42.5193 66.6102 42.6523C66.6634 42.7853 66.6013 42.936 66.4727 42.9892C63.1102 44.399 61.012 45.0019 57.6895 45.7733V55.3403C57.6895 55.4866 57.5742 55.6018 57.4322 55.6018Z" fill="#FCFCFD"/>
<path d="M42.1636 106.434C38.189 106.434 33.8241 104.949 29.5478 102.138C29.3171 101.987 29.2506 101.672 29.4014 101.442C29.5522 101.211 29.8672 101.145 30.0979 101.296C34.21 104 38.3842 105.427 42.1592 105.427C44.8829 105.427 47.7618 104.705 50.725 103.282C50.9779 103.162 51.2751 103.268 51.3993 103.517C51.5191 103.769 51.4126 104.066 51.1642 104.191C48.0679 105.676 45.0381 106.434 42.1636 106.434Z" fill="#BB6053"/>
</svg>
