<svg width="36" height="36" viewBox="0 0 36 36" fill="none" xmlns="http://www.w3.org/2000/svg">
<g clip-path="url(#clip0_143_41)">
<path d="M17.6 35.2C27.3202 35.2 35.2 27.3202 35.2 17.6C35.2 7.87979 27.3202 0 17.6 0C7.87979 0 0 7.87979 0 17.6C0 27.3202 7.87979 35.2 17.6 35.2Z" fill="#FF4500"/>
<path d="M29.3333 17.6C29.3333 16.1797 28.1806 15.0269 26.7602 15.0269C26.0604 15.0269 25.4428 15.2945 24.9899 15.7474C23.2402 14.4917 20.8112 13.6683 18.1352 13.5654L19.3085 8.06925L23.1167 8.87206C23.1579 9.83954 23.9607 10.6218 24.9488 10.6218C25.9574 10.6218 26.7808 9.79838 26.7808 8.78972C26.7808 7.78107 25.9574 6.95767 24.9488 6.95767C24.2283 6.95767 23.6108 7.36937 23.3226 7.98691L19.0615 7.08118C18.938 7.0606 18.8145 7.08118 18.7116 7.14294C18.6087 7.20469 18.5469 7.30761 18.5057 7.43112L17.2089 13.5654C14.4711 13.6477 12.0215 14.4505 10.2512 15.7474C9.79836 15.3151 9.16023 15.0269 8.48094 15.0269C7.06059 15.0269 5.90784 16.1797 5.90784 17.6C5.90784 18.6498 6.52538 19.535 7.43111 19.9467C7.38994 20.1937 7.36936 20.4613 7.36936 20.7289C7.36936 24.6812 11.9598 27.8718 17.6412 27.8718C23.3226 27.8718 27.913 24.6812 27.913 20.7289C27.913 20.4613 27.8924 20.2143 27.8512 19.9673C28.6952 19.5556 29.3333 18.6498 29.3333 17.6ZM11.7333 19.4321C11.7333 18.4234 12.5567 17.6 13.5654 17.6C14.574 17.6 15.3974 18.4234 15.3974 19.4321C15.3974 20.4407 14.574 21.2641 13.5654 21.2641C12.5567 21.2641 11.7333 20.4407 11.7333 19.4321ZM21.964 24.2695C20.7083 25.5252 18.3205 25.6075 17.6206 25.6075C16.9207 25.6075 14.5123 25.5046 13.2772 24.2695C13.0919 24.0842 13.0919 23.7755 13.2772 23.5902C13.4625 23.4049 13.7712 23.4049 13.9565 23.5902C14.7387 24.3724 16.4267 24.6606 17.6412 24.6606C18.8557 24.6606 20.523 24.3724 21.3258 23.5902C21.5111 23.4049 21.8199 23.4049 22.0051 23.5902C22.1492 23.796 22.1492 24.0842 21.964 24.2695ZM21.6346 21.2641C20.626 21.2641 19.8026 20.4407 19.8026 19.4321C19.8026 18.4234 20.626 17.6 21.6346 17.6C22.6433 17.6 23.4667 18.4234 23.4667 19.4321C23.4667 20.4407 22.6433 21.2641 21.6346 21.2641Z" fill="white"/>
</g>
<defs>
<clipPath id="clip0_143_41">
<rect width="35.2" height="35.2" fill="white"/>
</clipPath>
</defs>
</svg>
