<svg width="136" height="117" viewBox="0 0 136 117" fill="none" xmlns="http://www.w3.org/2000/svg">
<path d="M59.5 80.0486V77.1949C59.5 72.1154 45.475 65.7803 34 65.7803C22.525 65.7803 8.5 74.9691 8.5 80.0486V108.585" stroke="white" stroke-width="5" stroke-miterlimit="10"/>
<path d="M35.4167 25.8291C28.815 25.8291 22.6667 30.8801 22.6667 37.1296V45.9189C22.6667 52.1684 28.815 57.2193 35.4167 57.2193C42.0183 57.2193 48.1667 52.1684 48.1667 45.9189V37.1296C48.1667 30.8801 42.0183 25.8291 35.4167 25.8291Z" stroke="white" stroke-width="5" stroke-miterlimit="10"/>
<path d="M73.6667 114.292L87.8333 85.7559H48.1667L39.6667 105.731H22.6667" stroke="white" stroke-width="5" stroke-miterlimit="10" stroke-linejoin="round"/>
<path d="M62.3333 8.70732V48.6585C62.3333 51.7976 64.8833 54.3659 68 54.3659H73.6667V66.6366C73.6667 69.2905 76.9533 70.5176 78.6533 68.4915L90.6667 54.3659H127.5C130.617 54.3659 133.167 51.7976 133.167 48.6585V8.70732C133.167 5.56829 130.617 3 127.5 3H68C64.8833 3 62.3333 5.56829 62.3333 8.70732Z" stroke="white" stroke-width="5" stroke-miterlimit="10" stroke-linejoin="round"/>
<path d="M0 114.292H136" stroke="white" stroke-width="5" stroke-miterlimit="10" stroke-linejoin="round"/>
</svg>
