<svg width="114" height="114" viewBox="0 0 114 114" fill="none" xmlns="http://www.w3.org/2000/svg">
<g filter="url(#filter0_d_118_8682)">
<circle cx="57" cy="53" r="37" fill="#00FFF2"/>
</g>
<circle cx="57" cy="53" r="33" fill="#00FFF2" stroke="#FFFDFD" stroke-width="2"/>
<path d="M78.9298 64.0328C78.8616 64.267 78.8005 64.5012 78.7251 64.7318C78.1579 66.4792 76.6035 67.6069 74.7259 67.6105C71.3227 67.6177 67.923 67.6105 64.5197 67.6105C60.1077 67.6069 55.6992 67.6033 51.2872 67.5961C51.0933 67.5961 50.8959 67.5889 50.7128 67.5384C50.3574 67.4375 50.1599 67.1061 50.1958 66.7242C50.2281 66.3747 50.4902 66.0973 50.842 66.054C50.9964 66.036 51.1507 66.0396 51.3087 66.0396C54.1555 66.0396 56.9988 66.0396 59.8456 66.0396C59.9856 66.0396 60.1256 66.0396 60.3697 66.0396C60.2261 65.9315 60.1507 65.8811 60.0789 65.827C59.2138 65.1929 58.3019 64.6165 57.4978 63.9103C55.552 62.2025 53.6601 60.4299 51.7323 58.6969C51.5779 58.56 51.3266 58.4627 51.1184 58.4591C48.2357 58.4447 45.3494 58.4483 42.4667 58.4483C42.3231 58.4483 42.183 58.4519 42.0394 58.4375C41.623 58.3978 41.3394 58.106 41.3215 57.7061C41.3035 57.3098 41.562 56.9855 41.9712 56.9134C42.122 56.8882 42.28 56.8882 42.4343 56.8882C44.6996 56.8882 46.9613 56.8882 49.2265 56.8882C49.3629 56.8882 49.4994 56.8774 49.7183 56.8666C49.4527 56.618 49.2517 56.427 49.047 56.2397C46.8536 54.2437 44.6529 52.2549 42.4667 50.2481C39.8747 47.8665 40.345 43.8781 43.4072 42.1451C43.5293 42.0767 43.6549 41.9145 43.6836 41.7776C44.5883 37.5911 47.8336 34.5178 52.0339 33.9053C52.4431 33.844 52.8596 33.826 53.2724 33.8152C53.7858 33.8008 54.0335 33.9917 54.1771 34.4853C54.3278 35.0078 54.4607 35.5374 54.6258 36.0562C55.3438 38.2936 57.627 39.6051 59.8994 39.0466C61.2134 38.7224 62.4124 38.8485 63.4786 39.7312C64.0028 40.1635 64.3438 40.7184 64.5843 41.3489C66.0777 45.2436 67.5855 49.1312 69.0718 53.0295C69.6892 54.6436 70.7949 55.6957 72.4499 56.1929C73.5736 56.5315 74.7223 56.8162 75.7132 57.4935C77.501 58.7113 78.5636 60.3866 78.8687 62.5376C78.8759 62.5988 78.9118 62.6529 78.9369 62.7105C78.9298 63.1501 78.9298 63.5896 78.9298 64.0328ZM77.2102 64.2382C77.063 64.2382 76.9266 64.2382 76.7902 64.2382C75.2249 64.2382 73.6597 64.2418 72.0945 64.2382C67.3665 64.2237 63.1519 62.7429 59.5153 59.7129C58.5568 58.9131 57.7168 57.9619 56.8408 57.0612C56.5069 56.7153 56.5357 56.2433 56.848 55.9443C57.1747 55.6344 57.6378 55.6668 57.9896 56.0235C58.0901 56.1244 58.1763 56.2397 58.2804 56.337C59.1671 57.1873 60.0646 58.0303 60.9441 58.8842C61.1559 59.0896 61.3462 59.086 61.5975 58.9671C62.4124 58.5744 63.2381 58.2033 64.0566 57.8214C64.1787 57.7637 64.2935 57.6917 64.4156 57.6232C64.3294 57.4719 64.2648 57.3566 64.2002 57.2449C62.0247 53.4727 59.8492 49.7004 57.6701 45.9354C57.0634 44.8833 56.7834 43.7664 57.0562 42.5739C57.207 41.9181 57.5085 41.2948 57.7491 40.6355C55.0099 40.005 53.3945 38.1927 52.8308 35.4185C51.5779 35.4149 49.5783 36.1031 48.907 36.7588C50.5728 38.0306 51.5887 39.6952 51.8292 41.7884C52.0698 43.8817 51.4487 45.73 50.1025 47.3585C50.7379 48.0575 51.3554 48.7348 51.9728 49.4158C52.4 49.8842 52.8344 50.3489 53.2473 50.8317C53.5273 51.1632 53.4878 51.6028 53.1898 51.8874C52.8883 52.172 52.4647 52.1792 52.138 51.891C52.0231 51.7901 51.9226 51.6676 51.8185 51.5523C49.4347 48.9366 47.0474 46.3245 44.6781 43.698C44.4411 43.4386 44.2688 43.4314 43.996 43.6043C43.0195 44.2204 42.4667 45.0959 42.3625 46.2452C42.2513 47.4846 42.7718 48.4394 43.6729 49.2573C48.6629 53.7825 53.6386 58.3222 58.6286 62.8546C60.639 64.6813 62.994 65.8306 65.7044 65.9531C68.763 66.0937 71.8324 66.0396 74.8983 66.0432C75.9788 66.0432 76.9768 65.2398 77.2102 64.2382ZM63.5289 42.9558C63.3889 42.5847 63.2704 42.2568 63.1412 41.9326C62.5129 40.3257 60.9082 39.9293 59.6087 41.0607C58.4276 42.0875 58.1763 43.6908 58.9984 45.1211C61.2026 48.951 63.414 52.7737 65.6254 56.6C65.6757 56.6865 65.7331 56.7693 65.8157 56.8918C66.6916 56.319 67.5532 55.7569 68.361 55.2273C67.9158 54.2005 67.503 53.2421 67.0829 52.2729C66.8963 52.3558 66.7096 52.4386 66.5193 52.5179C66.0418 52.7161 65.6218 52.5827 65.428 52.1756C65.2305 51.7541 65.4136 51.3289 65.8911 51.0984C66.1065 50.9939 66.3219 50.8894 66.548 50.7813C66.2178 49.931 65.909 49.124 65.5895 48.2989C65.2485 48.4538 64.9469 48.5943 64.6418 48.7276C64.1535 48.9402 63.7048 48.8033 63.5181 48.3926C63.3207 47.9602 63.5145 47.5315 64.0243 47.2973C64.351 47.146 64.6777 46.9982 65.0331 46.8397C64.7172 46.0183 64.412 45.2256 64.0997 44.4222C63.9202 44.5014 63.7766 44.5663 63.6366 44.6275C63.4822 44.696 63.3314 44.7716 63.1771 44.8365C62.7104 45.0275 62.2796 44.8761 62.0965 44.469C61.9134 44.0547 62.0821 43.6403 62.5452 43.4134C62.8504 43.2584 63.1699 43.1179 63.5289 42.9558ZM62.7929 60.1525C65.3059 61.6188 67.9122 62.4871 70.7196 62.6168C72.8233 62.7141 74.9306 62.6637 77.0379 62.6781C77.1204 62.6781 77.203 62.6565 77.3035 62.6385C77.2892 62.5196 77.282 62.4295 77.264 62.343C76.7507 60.12 75.3829 58.7113 73.2217 58.052C71.9006 57.6484 70.5508 57.3134 69.481 56.3154C67.3988 57.8286 65.1982 59.0932 62.7929 60.1525ZM47.568 37.7676C46.4156 38.9169 45.6509 40.2572 45.2884 41.8209C45.2596 41.9362 45.3422 42.1163 45.4319 42.2172C46.5736 43.4854 47.7295 44.7464 48.8783 46.011C48.925 46.0651 48.986 46.1083 49.0398 46.1588C51.183 43.6511 50.6015 39.5618 47.568 37.7676Z" fill="black"/>
<path d="M44.2975 66.0398C45.1483 66.0398 46.0028 66.0362 46.8536 66.0398C47.4244 66.0434 47.7762 66.3425 47.7762 66.8073C47.7798 67.2756 47.4244 67.5927 46.8607 67.5927C45.1304 67.5963 43.4 67.5963 41.6697 67.5927C41.2281 67.5927 40.9122 67.3837 40.826 67.045C40.7399 66.7064 40.8045 66.3821 41.1168 66.1948C41.282 66.0939 41.5045 66.0506 41.702 66.047C42.5672 66.029 43.4323 66.0398 44.2975 66.0398Z" fill="black"/>
<path d="M48.2285 63.0206C47.4531 63.0206 46.6777 63.0242 45.9022 63.0206C45.3314 63.017 44.9976 62.7215 44.9976 62.2351C45.0012 61.7524 45.3386 61.4641 45.913 61.4641C47.4639 61.4605 49.0147 61.4605 50.5656 61.4641C51.1292 61.4641 51.4882 61.7632 51.4954 62.2279C51.5026 62.7071 51.1364 63.017 50.5512 63.0206C49.7794 63.0242 49.004 63.0206 48.2285 63.0206Z" fill="black"/>
<path d="M41.0127 63.021C40.6645 63.021 40.3127 63.0318 39.9645 63.0174C39.5157 62.9994 39.1962 62.6787 39.1854 62.2608C39.1747 61.832 39.5085 61.479 39.9716 61.4717C40.6681 61.4573 41.3681 61.4573 42.0646 61.4717C42.542 61.479 42.858 61.8068 42.8544 62.25C42.8508 62.6967 42.5384 63.0066 42.0574 63.021C41.7128 63.0318 41.3609 63.021 41.0127 63.021Z" fill="black"/>
<path d="M54.9956 54.6908C54.5791 54.6764 54.2453 54.3269 54.2524 53.909C54.2596 53.4838 54.6402 53.1199 55.0566 53.1415C55.4694 53.1596 55.8033 53.5198 55.7997 53.9306C55.7925 54.3665 55.4371 54.7052 54.9956 54.6908Z" fill="black"/>
<defs>
<filter id="filter0_d_118_8682" x="0" y="0" width="114" height="114" filterUnits="userSpaceOnUse" color-interpolation-filters="sRGB">
<feFlood flood-opacity="0" result="BackgroundImageFix"/>
<feColorMatrix in="SourceAlpha" type="matrix" values="0 0 0 0 0 0 0 0 0 0 0 0 0 0 0 0 0 0 127 0" result="hardAlpha"/>
<feOffset dy="4"/>
<feGaussianBlur stdDeviation="10"/>
<feComposite in2="hardAlpha" operator="out"/>
<feColorMatrix type="matrix" values="0 0 0 0 0 0 0 0 0 1 0 0 0 0 0.94902 0 0 0 1 0"/>
<feBlend mode="normal" in2="BackgroundImageFix" result="effect1_dropShadow_118_8682"/>
<feBlend mode="normal" in="SourceGraphic" in2="effect1_dropShadow_118_8682" result="shape"/>
</filter>
</defs>
</svg>
