<svg width="36" height="36" viewBox="0 0 36 36" fill="none" xmlns="http://www.w3.org/2000/svg">
<path d="M17.6 35.2C27.3202 35.2 35.2 27.3202 35.2 17.6C35.2 7.87979 27.3202 0 17.6 0C7.87979 0 0 7.87979 0 17.6C0 27.3202 7.87979 35.2 17.6 35.2Z" fill="url(#paint0_linear_301_21)"/>
<path fill-rule="evenodd" clip-rule="evenodd" d="M7.96673 17.4142C13.0975 15.1788 16.5188 13.7051 18.2307 12.9931C23.1184 10.9601 24.134 10.607 24.796 10.5953C24.9416 10.5928 25.2671 10.6288 25.478 10.7999C25.656 10.9444 25.705 11.1396 25.7284 11.2766C25.7519 11.4136 25.7811 11.7256 25.7579 11.9694C25.493 14.7524 24.3469 21.5059 23.7639 24.6229C23.5172 25.9418 23.0314 26.384 22.5611 26.4273C21.539 26.5214 20.7629 25.7519 19.773 25.103C18.224 24.0876 17.3489 23.4555 15.8453 22.4646C14.1076 21.3195 15.234 20.6902 16.2243 19.6616C16.4835 19.3924 20.9867 15.2964 21.0739 14.9248C21.0848 14.8783 21.0949 14.7051 20.992 14.6136C20.8891 14.5222 20.7372 14.5535 20.6276 14.5783C20.4722 14.6136 17.9977 16.2492 13.2038 19.4852C12.5014 19.9675 11.8652 20.2025 11.2952 20.1902C10.6668 20.1766 9.45796 19.8349 8.55933 19.5428C7.45713 19.1845 6.58112 18.9951 6.6574 18.3866C6.69713 18.0696 7.13358 17.7455 7.96673 17.4142Z" fill="white"/>
<defs>
<linearGradient id="paint0_linear_301_21" x1="17.6" y1="0" x2="17.6" y2="34.9389" gradientUnits="userSpaceOnUse">
<stop stop-color="#2AABEE"/>
<stop offset="1" stop-color="#229ED9"/>
</linearGradient>
</defs>
</svg>
