<svg width="36" height="29" viewBox="0 0 36 29" fill="none" xmlns="http://www.w3.org/2000/svg">
<path d="M11.0697 28.901C24.3528 28.901 31.618 17.8961 31.618 8.35267C31.618 8.0401 31.618 7.72893 31.5969 7.41917C33.0103 6.39684 34.2304 5.131 35.2 3.68093C33.882 4.26525 32.4838 4.64828 31.052 4.81718C32.5597 3.91473 33.6881 2.49513 34.2271 0.822689C32.8095 1.66398 31.2585 2.25683 29.6412 2.57565C28.5524 1.41783 27.1122 0.65115 25.5438 0.394253C23.9753 0.137356 22.3658 0.404564 20.9645 1.15453C19.5632 1.90449 18.4481 3.0954 17.7918 4.54296C17.1355 5.99052 16.9745 7.61404 17.3339 9.16227C14.4626 9.01824 11.6538 8.27205 9.0896 6.97214C6.52542 5.67222 4.26325 3.84763 2.44992 1.6168C1.5264 3.20666 1.24355 5.08874 1.65895 6.87982C2.07435 8.67091 3.15677 10.2363 4.68582 11.2574C3.53647 11.2237 2.41215 10.9136 1.408 10.3534V10.445C1.40846 12.1123 1.98565 13.7282 3.04168 15.0186C4.09771 16.3089 5.56756 17.1942 7.20192 17.5244C6.1387 17.8144 5.02315 17.8568 3.94099 17.6483C4.40266 19.0832 5.30116 20.3379 6.51088 21.2371C7.72061 22.1363 9.18108 22.6351 10.6881 22.6636C9.19078 23.8406 7.47606 24.7107 5.64208 25.2244C3.8081 25.738 1.89085 25.885 0 25.657C3.30269 27.7764 7.14549 28.9005 11.0697 28.8954" fill="#1DA1F2"/>
</svg>
