<svg width="134" height="122" viewBox="0 0 134 122" fill="none" xmlns="http://www.w3.org/2000/svg">
<path d="M55.2439 32.0244V3H130.707V84.2683H55.2439V63.9512" stroke="white" stroke-width="5" stroke-miterlimit="10"/>
<path d="M29.122 32.0244C35.7685 32.0244 40.7317 26.4517 40.7317 19.5729V15.4515C40.7317 8.57268 35.7685 3 29.122 3C22.4754 3 17.5122 8.57268 17.5122 15.4515V19.602C17.5122 26.4517 22.4754 32.0244 29.122 32.0244Z" stroke="white" stroke-width="5" stroke-miterlimit="10"/>
<path d="M43.6341 122V52.3417H61.0488C69.8141 52.3417 72.6585 47.1753 72.6585 40.7319C68.1307 40.7319 22.8527 40.7319 17.5122 40.7319C7.12146 40.7319 3 45.1146 3 58.1466V78.4636C3 84.7039 5.4961 90.0734 11.7073 90.0734H14.6098" stroke="white" stroke-width="5" stroke-miterlimit="10"/>
<path d="M29.1219 81.3657V122" stroke="white" stroke-width="5" stroke-miterlimit="10"/>
<path d="M14.6097 58.1465V122" stroke="white" stroke-width="5" stroke-miterlimit="10"/>
<path d="M66.8536 66.8539H81.3658L87.1707 55.2441H101.683L113.293 26.2197H122" stroke="white" stroke-width="5" stroke-miterlimit="10"/>
</svg>
